<?xml version="1.0" encoding="utf-8"?>
<!-- Generator: Adobe Illustrator 17.0.0, SVG Export Plug-In . SVG Version: 6.00 Build 0)  -->
<!DOCTYPE svg PUBLIC "-//W3C//DTD SVG 1.1//EN" "http://www.w3.org/Graphics/SVG/1.1/DTD/svg11.dtd">
<svg version="1.1" id="Layer_1" xmlns="http://www.w3.org/2000/svg" xmlns:xlink="http://www.w3.org/1999/xlink" x="0px" y="0px"
	 width="2000px" height="2000px" viewBox="0 0 2000 2000" enable-background="new 0 0 2000 2000" xml:space="preserve">
<g>
	<path fill="#E62818" d="M-1178.09,881.854c0,47.093-28.966,87.413-70.045,104.136c-28.636-49.183-44.558-86.854-45.99-90.291
		c-0.616-1.446-2.033-2.391-3.623-2.391h-104.552c-0.386-3.766-0.587-7.589-0.587-11.455c0-62.07,50.328-112.398,112.398-112.398
		C-1228.419,769.456-1178.09,819.784-1178.09,881.854z"/>
	<path fill="#187FB7" d="M-1691.04,1185.113c-0.243-1.26-0.487-2.506-0.716-3.78c48.596-37.098,89.718-85.451,122.364-131.971h0.014
		c0.573-0.444,1.632-1.274,3.107-2.391c-2.09,3.064-4.21,6.128-6.372,9.207h-0.014
		C-1604.444,1101.409-1644.205,1148.358-1691.04,1185.113z"/>
	<path fill="#2E5A8B" d="M-1708.05,1188.764l5.24,5.241c-0.974,0.73-1.947,1.432-2.935,2.133l-4.267-5.956
		C-1709.353,1189.709-1708.709,1189.237-1708.05,1188.764z"/>
	<path fill="#187FB7" d="M-1569.379,1049.362c0.573-0.444,1.632-1.274,3.107-2.391c-2.09,3.064-4.21,6.128-6.372,9.207h-0.014
		c-31.786,45.231-71.548,92.181-118.383,128.936c-0.243-1.26-0.487-2.506-0.716-3.78c48.596-37.098,89.718-85.451,122.364-131.971
		H-1569.379z"/>
	<path fill="#187FB7" d="M-929.369,919.353l-380.005-380.005c-22.15-22.15-51.216-33.261-80.297-33.347
		c-29.309-0.086-58.647,11.039-80.955,33.347l-380.005,380.005c-1.389,1.389-2.735,2.806-4.038,4.252
		c-1.317,1.446-2.577,2.921-3.794,4.41c-1.818,2.234-3.537,4.525-5.169,6.858c0,0-0.014,0-0.014,0.014
		c-1.618,2.334-3.136,4.711-4.568,7.13c-21.019,35.624-21.019,80.297,0,115.92c1.432,2.42,2.949,4.797,4.568,7.13
		c0,0.014,0.014,0.014,0.014,0.014c1.632,2.334,3.35,4.625,5.169,6.859c1.217,1.489,2.477,2.964,3.794,4.41
		c1.303,1.446,2.649,2.864,4.038,4.253l189.33,189.33l131.57,131.57l58.103,58.103l1.002,1.002
		c18.571,18.571,42.411,29.939,68.155,32.703c0.916,0.1,1.847,0.186,2.763,0.272h0.057c0.63,0.057,1.274,0.115,1.904,0.143
		c0.601,0.057,1.217,0.086,1.833,0.114c0.745,0.043,1.489,0.086,2.234,0.1c0.558,0.029,1.103,0.043,1.661,0.043
		c0.659,0.014,1.332,0.014,2.005,0.014c7.918,0,15.678-0.802,23.238-2.363c21.606-4.439,41.451-15.077,57.402-31.028l50.944-50.944
		l156.498-156.498l172.563-172.563c21.535-21.535,33.39-50.171,33.39-80.626C-895.979,969.524-907.834,940.887-929.369,919.353z
		 M-1572.643,1056.178h-0.014c-31.786,45.231-71.548,92.181-118.383,128.936c-0.243-1.26-0.487-2.506-0.716-3.78
		c48.596-37.098,89.718-85.451,122.364-131.971h0.014c0.573-0.444,1.632-1.274,3.107-2.391
		C-1568.362,1050.035-1570.481,1053.099-1572.643,1056.178z M-1289.042,970.125c-0.057-0.057-0.129-0.129-0.315-0.072
		c-0.186,0.072-0.186,0.172-0.186,0.272v39.79c0,3.15-1.904,5.928-4.854,7.073c-2.95,1.131-6.214,0.358-8.333-1.976l-21.964-24.155
		c-0.057-0.057-0.115-0.129-0.286-0.086c-0.172,0.057-0.186,0.158-0.2,0.229l-6.93,42.654c-0.53,3.322-3.136,5.856-6.458,6.314
		c-3.322,0.444-6.5-1.303-7.918-4.353l-29.811-64.818c-0.043-0.086-0.1-0.158-0.272-0.158c-0.186,0.014-0.229,0.1-0.258,0.201
		l-7.102,22.179c-0.057,0.2-0.129,0.387-0.215,0.573c-0.057,0.143-0.115,0.286-0.186,0.415c-0.1,0.229-0.215,0.444-0.344,0.659
		c-0.243,0.415-0.53,0.802-0.859,1.16c-0.014,0.029-0.043,0.057-0.057,0.072c-0.172,0.186-0.358,0.372-0.544,0.53
		c-0.215,0.201-0.458,0.387-0.702,0.544c-0.186,0.129-0.372,0.243-0.573,0.358c-0.014,0.014-0.043,0.029-0.057,0.043
		c-0.215,0.1-0.43,0.2-0.644,0.301c-0.014,0.014-0.043,0.029-0.072,0.029c0,0,0,0.014-0.014,0c-0.215,0.1-0.43,0.172-0.644,0.243
		c-0.201,0.072-0.401,0.115-0.601,0.157c-0.501,0.129-1.017,0.186-1.561,0.2c-3.35,0.043-6.171-1.904-7.288-5.026l-6.944-19.301
		c-0.043-0.115-0.072-0.201-0.286-0.172c-0.2,0.014-0.229,0.1-0.258,0.215l-13.531,59.736c-0.788,3.494-3.823,5.913-7.388,5.913
		h-0.1c-3.622-0.057-6.644-2.549-7.345-6.1l-10.223-51.073c-0.014-0.072-0.029-0.172-0.2-0.215c-0.172-0.057-0.229,0.043-0.286,0.1
		l-25.572,30.211c-2.047,2.405-5.255,3.207-8.176,2.047c-2.935-1.146-4.739-3.923-4.568-7.059c0.186-3.895,0.029-8.863-0.157-14.118
		c-0.157-4.797-0.344-10.209-0.272-15.592c0-0.1,0-0.186-0.157-0.243c-0.186-0.072-0.272,0-0.344,0.072
		c-19.759,20.389-68.47,58.447-82.158,69.057c2.434-3.565,4.825-7.13,7.145-10.653c43.413-65.577,69.171-123.566,74.354-135.665
		h186.552c4.009,9.178,19.974,44.816,46.706,90.147c8.376,14.218,17.812,29.395,28.264,45.002
		c4.754,7.116,9.736,14.333,14.92,21.592L-1289.042,970.125z M-946.579,1063.394l-125.37,125.37
		c-1.088-0.745-2.162-1.532-3.236-2.319c-42.01-30.67-78.621-69.758-109.205-109.248h-0.014c-0.014-0.029-0.029-0.057-0.057-0.072
		c-23.711-30.641-43.785-61.511-59.979-88.902c-0.601-1.017-1.203-2.033-1.79-3.035c-28.622-48.882-44.529-85.981-45.99-89.432
		c-0.644-1.475-2.119-2.448-3.766-2.448h-190.962c-1.632,0-3.093,0.974-3.723,2.463c-3.236,7.746-78.378,185.22-206.383,284.746
		c-3.622,2.807-7.288,5.57-10.996,8.247l-125.37-125.37c-34.965-34.965-34.965-91.866,0-126.831l380.005-380.005
		c17.482-17.483,40.449-26.217,63.415-26.217h0.458c22.809,0.115,45.589,8.849,62.957,26.217l380.005,380.005
		c16.939,16.938,26.26,39.461,26.26,63.415C-920.32,1023.933-929.641,1046.456-946.579,1063.394z"/>
	<path fill="#F4F4F4" d="M-1208.316,1057.38l-80.726-87.255c-0.057-0.057-0.129-0.129-0.315-0.072
		c-0.186,0.072-0.186,0.172-0.186,0.272v39.79c0,3.15-1.904,5.928-4.854,7.073c-2.95,1.131-6.214,0.358-8.333-1.976l-21.964-24.155
		c-0.057-0.057-0.115-0.129-0.286-0.086c-0.172,0.057-0.186,0.158-0.2,0.229l-6.93,42.654c-0.53,3.322-3.136,5.856-6.458,6.314
		c-3.322,0.444-6.5-1.303-7.918-4.353l-29.811-64.818c-0.043-0.086-0.1-0.158-0.272-0.158c-0.186,0.014-0.229,0.1-0.258,0.201
		l-7.102,22.179c-0.057,0.2-0.129,0.387-0.215,0.573c-0.057,0.143-0.115,0.286-0.186,0.415c-0.1,0.229-0.215,0.444-0.344,0.659
		c-0.243,0.415-0.53,0.816-0.859,1.16c-0.014,0.029-0.043,0.057-0.057,0.072c-0.172,0.186-0.358,0.372-0.544,0.53
		c-0.215,0.201-0.458,0.387-0.702,0.544c-0.186,0.129-0.372,0.243-0.573,0.358c-0.014,0.014-0.043,0.029-0.057,0.043
		c-0.215,0.1-0.43,0.2-0.644,0.301c-0.014,0.014-0.043,0.029-0.072,0.029l1.045-5.083l-0.473-92.181h89.403
		c4.009,9.178,19.974,44.816,46.706,90.147c8.376,14.218,17.812,29.395,28.264,45.002
		C-1218.482,1042.905-1213.499,1050.121-1208.316,1057.38z"/>
	<path fill="#FFFFFF" d="M-1387.136,992.82l-1.045,5.083c0,0,0,0.014-0.014,0c-0.215,0.1-0.43,0.172-0.644,0.243
		c-0.201,0.072-0.401,0.115-0.601,0.157c-0.501,0.129-1.017,0.186-1.561,0.2c-3.35,0.043-6.171-1.904-7.288-5.026l-6.944-19.301
		c-0.043-0.115-0.072-0.201-0.286-0.172c-0.2,0.014-0.229,0.1-0.258,0.215l-13.531,59.736c-0.788,3.494-3.823,5.913-7.388,5.913
		h-0.1c-3.622-0.057-6.644-2.549-7.345-6.1l-10.223-51.073c-0.014-0.072-0.029-0.172-0.2-0.215c-0.172-0.057-0.229,0.043-0.286,0.1
		l-25.572,30.211c-2.047,2.405-5.255,3.207-8.176,2.047c-2.935-1.146-4.739-3.923-4.568-7.059c0.186-3.895,0.029-8.863-0.157-14.118
		c-0.157-4.797-0.344-10.209-0.272-15.592c0-0.1,0-0.186-0.157-0.243c-0.186-0.072-0.272,0-0.344,0.072
		c-19.759,20.389-68.47,58.447-82.158,69.057c2.434-3.565,4.825-7.13,7.145-10.653c43.413-65.577,69.171-123.566,74.354-135.665
		h97.149L-1387.136,992.82z"/>
	<path fill="#1E8CBC" d="M-1359.287,1183.008c0,5.355-0.73,10.739-2.219,15.993l-2.935,10.323
		c-11.182,39.418-30.813,75.93-57.531,106.986c-4.882,5.684-7.445,12.815-7.445,20.06c0,4.009,0.788,8.061,2.406,11.898
		l60.237,143.368c-7.56,1.561-15.32,2.363-23.238,2.363h-1.203c-0.272,0-0.53,0-0.802-0.014c-0.558,0-1.103-0.014-1.661-0.043
		c-0.745-0.014-1.489-0.057-2.234-0.1c-0.616-0.029-1.231-0.057-1.833-0.114c-0.63-0.029-1.274-0.086-1.904-0.143h-0.057
		c-0.916-0.086-1.847-0.172-2.763-0.272c-26.059-2.935-50.457-15.005-69.157-33.705l-58.103-58.103l-131.57-131.57l-189.33-189.33
		c-1.389-1.389-2.735-2.806-4.038-4.253c-1.317-1.446-2.577-2.921-3.794-4.41c-1.818-2.234-3.551-4.525-5.169-6.859
		c0,0-0.014,0-0.014-0.014c-1.618-2.334-3.15-4.711-4.568-7.13c-21.077-35.638-21.077-80.282,0-115.92
		c1.417-2.42,2.949-4.797,4.568-7.13c0-0.014,0.014-0.014,0.014-0.014c1.618-2.334,3.35-4.625,5.169-6.858
		c1.217-1.489,2.477-2.964,3.794-4.41c1.303-1.446,2.649-2.864,4.038-4.252l380.005-380.005
		c22.308-22.308,51.646-33.433,80.955-33.347l0.129,24.341H-1390c-22.966,0-45.933,8.734-63.415,26.217l-380.005,380.005
		c-34.965,34.965-34.965,91.866,0,126.831l125.37,125.37c3.708-2.677,7.374-5.441,10.996-8.247
		c128.005-99.526,203.147-277,206.383-284.746c0.63-1.489,2.091-2.463,3.723-2.463h99.297l0.043,7.331h-97.149
		c-5.183,12.099-30.942,70.088-74.354,135.665c-2.319,3.522-4.711,7.088-7.145,10.653c13.688-10.61,62.399-48.668,82.158-69.057
		c0.072-0.072,0.157-0.143,0.344-0.072c0.157,0.057,0.157,0.143,0.157,0.243c-0.072,5.384,0.115,10.796,0.272,15.592
		c0.186,5.255,0.344,10.223,0.157,14.118c-0.172,3.136,1.632,5.913,4.568,7.059c2.921,1.16,6.128,0.358,8.176-2.047l25.572-30.211
		c0.057-0.057,0.115-0.157,0.286-0.1c0.172,0.043,0.186,0.143,0.2,0.215l10.223,51.073c0.702,3.551,3.723,6.042,7.345,6.1h0.1
		c3.565,0,6.601-2.42,7.388-5.913l13.531-59.736c0.029-0.115,0.057-0.2,0.258-0.215c0.215-0.029,0.244,0.057,0.286,0.172
		l6.944,19.301c1.117,3.121,3.938,5.069,7.288,5.026c0.544-0.014,1.06-0.072,1.561-0.2c0.2-0.043,0.401-0.086,0.601-0.157
		c0.215-0.072,0.429-0.143,0.644-0.243c0.014,0.014,0.014,0,0.014,0l-3.422,12.915c-12.643,47.78-4.396,98.681,22.709,140.003
		C-1362.552,1160.486-1359.287,1171.683-1359.287,1183.008z"/>
</g>
<g>
	<path fill="#FFFFFF" d="M-1350.54,1353.171c-24.889-0.838-45.854-3.451-62.896-7.842c-17.047-4.392-31.056-10.51-42.035-18.351
		c-10.98-7.843-19.449-17.411-25.409-28.703c-5.961-11.294-10.25-24.258-12.862-38.899c-2.617-14.636-4.131-30.898-4.549-48.779
		c-0.421-17.881-0.524-37.379-0.314-58.504v-22.9h50.819v23.528c0,14.223,0.049,27.502,0.156,39.839
		c0.104,12.341,0.888,23.684,2.354,34.036c1.46,10.352,3.71,19.66,6.744,27.919c3.03,8.264,7.421,15.478,13.176,21.644
		c5.749,6.171,13.121,11.244,22.115,15.214c8.989,3.975,19.969,6.901,32.938,8.784c-1.675-6.48-2.979-13.122-3.921-19.92
		c-0.941-6.794-1.725-13.646-2.353-20.547c-1.255-12.126-2.196-24.518-2.823-37.173c-0.628-12.65-1.152-25.669-1.569-39.055
		l33.252-10.352l-49.563-0.628l0.628-50.818h15.684c0-4.598,0-9.043,0-13.332c0-4.284,0.207-8.729,0.628-13.332l50.819,0.628
		c0,4.602,0,9.048,0,13.331c0,4.289-0.21,8.735-0.628,13.332l16.939,0.628l-0.627,50.819h-16.313
		c0.417,14.013,0.834,27.815,1.255,41.408c0.417,13.597,1.461,26.663,3.138,39.211c1.044,10.46,2.298,20.184,3.763,29.173
		c1.461,8.995,3.186,16.993,5.177,23.998c1.985,7.01,4.284,12.813,6.901,17.41c2.612,4.603,5.489,7.735,8.627,9.411l-22.586,46.113
		c-10.877-5.229-19.974-14.115-27.292-26.663L-1350.54,1353.171z"/>
</g>
<g>
	<path fill="#E62818" d="M1274.36,675.821c0,61.096-37.579,113.406-90.874,135.103c-37.152-63.808-57.809-112.682-59.666-117.14
		c-0.799-1.876-2.638-3.102-4.7-3.102H983.479c-0.501-4.885-0.762-9.845-0.762-14.861c0-80.527,65.295-145.821,145.821-145.821
		C1209.066,530,1274.36,595.294,1274.36,675.821z"/>
	<path fill="#187FB7" d="M608.876,1069.261c-0.316-1.635-0.632-3.251-0.929-4.904c63.047-48.13,116.397-110.861,158.75-171.215
		h0.018c0.743-0.576,2.118-1.653,4.031-3.102c-2.712,3.975-5.461,7.951-8.266,11.944h-0.019
		C721.223,960.665,669.638,1021.576,608.876,1069.261z"/>
	<path fill="#2E5A8B" d="M593.606,1080.79c-1.258,0.96-2.53,1.868-3.814,2.776l-5.306-7.434l-0.22-0.298
		c0.856-0.61,1.687-1.219,2.543-1.842L593.606,1080.79z"/>
	<path fill="#187FB7" d="M766.716,893.142c0.743-0.576,2.118-1.653,4.031-3.102c-2.712,3.975-5.461,7.951-8.266,11.944h-0.019
		c-41.239,58.681-92.824,119.592-153.586,167.277c-0.316-1.635-0.632-3.251-0.929-4.904
		c63.047-48.13,116.397-110.861,158.75-171.215H766.716z"/>
	<g>
		<path fill="#187FB7" d="M1412.063,1073.992c-1.414-0.96-2.802-1.985-4.203-3.01c-35.768-26.103-68.514-56.915-98.016-89.505
			c-0.091-0.104-0.195-0.22-0.298-0.324c-6.708-7.408-13.246-14.92-19.629-22.483c-0.13-0.156-0.233-0.286-0.298-0.363
			c-0.026-0.039-0.065-0.078-0.091-0.117c-8.057-9.588-15.841-19.253-23.34-28.931h-0.013c-0.026-0.039-0.039-0.078-0.078-0.091
			c-30.76-39.764-56.812-79.814-77.816-115.349c-0.779-1.31-1.557-2.634-2.322-3.931c-37.131-63.415-57.772-111.548-59.666-116.023
			c-0.844-1.92-2.751-3.179-4.891-3.179H873.656c-2.115,0-4.009,1.258-4.826,3.191c-3.23,7.706-61.34,144.981-163.17,266.791
			c-4.878,5.825-9.834,11.599-14.894,17.333c-0.13,0.156-0.272,0.311-0.415,0.467c-27.024,30.54-56.838,59.614-89.272,84.835
			c-1.959,1.505-3.931,3.01-5.903,4.502c-0.026,0.026-0.052,0.039-0.065,0.052c-2.751,2.076-5.514,4.125-8.303,6.136
			c-0.856,0.623-1.687,1.232-2.543,1.842l0.22,0.298c-7.55,5.76-15.322,11.43-23.288,16.905l256.957,256.957l75.377,75.39
			l1.297,1.297c24.092,24.092,55.021,38.843,88.428,42.424c1.193,0.13,2.4,0.246,3.581,0.35h0.078
			c0.817,0.078,1.648,0.156,2.465,0.195c0.791,0.078,1.583,0.104,2.387,0.143c0.96,0.065,1.933,0.117,2.893,0.13
			c0.726,0.039,1.427,0.065,2.154,0.065c0.857,0.013,1.726,0.013,2.608,0.013c10.262,0,20.33-1.038,30.138-3.062
			c28.036-5.76,53.789-19.564,74.482-40.257l269.126-269.126l65.634-65.634c-9.12-5.773-18.007-11.845-26.583-18.085
			L1412.063,1073.992z"/>
		<path fill="#187FB7" d="M762.484,901.987h-0.026c-41.23,58.68-92.827,119.591-153.582,167.27
			c-0.311-1.635-0.636-3.243-0.934-4.904c63.052-48.132,116.4-110.86,158.759-171.213h0.013c0.739-0.571,2.115-1.648,4.035-3.101
			C768.038,894.021,765.287,897.991,762.484,901.987z"/>
		<path fill="#187FB7" d="M1130.418,790.348c-0.078-0.078-0.168-0.169-0.415-0.104c-0.234,0.104-0.234,0.234-0.234,0.363v51.622
			c0,4.087-2.478,7.68-6.305,9.172c-3.828,1.466-8.057,0.467-10.807-2.569l-28.49-31.331c-0.078-0.078-0.156-0.169-0.376-0.117
			c-0.22,0.078-0.246,0.208-0.259,0.298l-8.991,55.346c-0.688,4.307-4.074,7.59-8.381,8.186c-4.307,0.571-8.433-1.687-10.275-5.643
			l-38.675-84.095c-0.052-0.117-0.13-0.208-0.35-0.208c-0.246,0.026-0.298,0.13-0.337,0.259l-9.211,28.776
			c-0.078,0.259-0.169,0.506-0.273,0.74c-0.078,0.195-0.156,0.376-0.246,0.545c-0.13,0.298-0.272,0.571-0.441,0.856
			c-0.324,0.532-0.688,1.051-1.116,1.505c-0.026,0.039-0.065,0.065-0.078,0.091c-0.22,0.234-0.467,0.48-0.7,0.688
			c-0.286,0.259-0.597,0.493-0.921,0.701c-0.233,0.169-0.48,0.324-0.739,0.467c-0.013,0.013-0.052,0.039-0.078,0.052
			c-0.272,0.13-0.558,0.259-0.83,0.389c-0.013,0.026-0.052,0.039-0.091,0.039c0,0,0,0.026-0.026,0
			c-0.272,0.13-0.558,0.221-0.831,0.324c-0.259,0.091-0.519,0.143-0.778,0.195c-0.649,0.169-1.323,0.247-2.024,0.259
			c-4.346,0.065-8.005-2.465-9.458-6.513l-9.004-25.039c-0.065-0.156-0.104-0.26-0.376-0.221c-0.259,0.013-0.298,0.13-0.337,0.272
			l-17.553,77.505c-1.025,4.528-4.956,7.667-9.587,7.667h-0.13c-4.696-0.078-8.614-3.308-9.523-7.914l-13.272-66.257
			c-0.013-0.091-0.026-0.234-0.259-0.285c-0.22-0.078-0.298,0.052-0.363,0.13l-33.186,39.193c-2.647,3.127-6.811,4.165-10.6,2.66
			c-3.814-1.479-6.15-5.086-5.929-9.159c0.246-5.047,0.039-11.495-0.208-18.319c-0.194-6.214-0.441-13.233-0.35-20.226
			c0-0.13,0-0.234-0.207-0.311c-0.233-0.091-0.35,0-0.441,0.091c-25.636,26.453-88.831,75.831-106.592,89.596
			c3.165-4.632,6.266-9.25,9.276-13.83c56.319-85.068,89.739-160.303,96.459-176.001h242.024
			c5.202,11.91,25.921,58.135,60.6,116.958c10.872,18.436,23.106,38.13,36.664,58.382c6.175,9.224,12.636,18.591,19.357,28.01
			L1130.418,790.348z"/>
	</g>
	<path fill="#F4F4F4" d="M1235.146,903.544l-104.731-113.202c-0.074-0.074-0.167-0.167-0.409-0.093
		c-0.242,0.093-0.242,0.223-0.242,0.353v51.623c0,4.087-2.47,7.69-6.297,9.177c-3.827,1.468-8.062,0.464-10.811-2.563
		l-28.495-31.338c-0.074-0.074-0.148-0.167-0.372-0.111c-0.223,0.074-0.241,0.204-0.26,0.297l-8.991,55.338
		c-0.687,4.31-4.068,7.598-8.378,8.192c-4.31,0.576-8.433-1.69-10.272-5.647l-38.675-84.093c-0.056-0.111-0.13-0.204-0.353-0.204
		c-0.242,0.019-0.297,0.13-0.334,0.26l-9.214,28.774c-0.074,0.26-0.167,0.502-0.279,0.743c-0.074,0.186-0.149,0.372-0.242,0.539
		c-0.13,0.297-0.279,0.576-0.446,0.855c-0.316,0.539-0.687,1.059-1.115,1.505c-0.019,0.037-0.056,0.074-0.074,0.093
		c-0.223,0.242-0.464,0.483-0.706,0.687c-0.279,0.26-0.594,0.502-0.91,0.706c-0.241,0.167-0.483,0.316-0.743,0.464
		c-0.019,0.019-0.056,0.037-0.074,0.056c-0.279,0.13-0.557,0.26-0.836,0.39c-0.019,0.019-0.056,0.037-0.093,0.037l1.356-6.594
		l-0.613-119.592h115.988c5.201,11.907,25.914,58.143,60.595,116.954c10.867,18.446,23.108,38.137,36.669,58.384
		C1221.957,884.764,1228.422,894.126,1235.146,903.544z"/>
	<path fill="#FFFFFF" d="M1003.151,819.785l-1.356,6.594c0,0,0,0.019-0.019,0c-0.279,0.13-0.557,0.223-0.836,0.316
		c-0.26,0.093-0.52,0.149-0.78,0.204c-0.65,0.167-1.319,0.241-2.025,0.26c-4.347,0.056-8.006-2.471-9.455-6.52l-9.009-25.04
		c-0.056-0.149-0.093-0.26-0.372-0.223c-0.26,0.019-0.297,0.13-0.334,0.279l-17.554,77.499c-1.022,4.533-4.96,7.672-9.585,7.672
		h-0.13c-4.7-0.074-8.619-3.307-9.529-7.913l-13.263-66.26c-0.019-0.093-0.037-0.223-0.26-0.279
		c-0.223-0.074-0.297,0.056-0.372,0.13l-33.177,39.195c-2.656,3.121-6.817,4.161-10.607,2.656c-3.808-1.486-6.149-5.09-5.926-9.158
		c0.242-5.053,0.037-11.499-0.204-18.316c-0.204-6.223-0.446-13.245-0.353-20.229c0-0.13,0-0.241-0.204-0.316
		c-0.242-0.093-0.353,0-0.446,0.093c-25.635,26.452-88.83,75.827-106.589,89.592c3.158-4.625,6.26-9.251,9.269-13.821
		c56.322-85.078,89.741-160.311,96.465-176.007h126.038L1003.151,819.785z"/>
	<path fill="#1E8CBC" d="M1039.278,1066.532c0,6.941-0.947,13.934-2.88,20.745l-3.801,13.402
		c-14.505,51.129-39.972,98.496-74.638,138.792c-6.344,7.382-9.665,16.632-9.665,26.025c0,5.202,1.025,10.457,3.127,15.439
		l78.14,186.004c-9.808,2.024-19.876,3.062-30.138,3.062h-1.57c-0.35,0-0.688,0-1.038-0.013c-0.727,0-1.427-0.026-2.154-0.065
		c-0.96-0.013-1.933-0.065-2.893-0.13c-0.805-0.039-1.596-0.065-2.387-0.143c-0.817-0.039-1.648-0.117-2.465-0.195h-0.078
		c-1.181-0.104-2.387-0.221-3.581-0.35c-33.81-3.801-65.465-19.46-89.726-43.721l-75.377-75.39l-256.957-256.957
		c7.966-5.475,15.737-11.144,23.288-16.905l-0.22-0.298c0.856-0.61,1.687-1.219,2.543-1.842c2.79-2.011,5.553-4.061,8.303-6.136
		c0.013-0.013,0.039-0.026,0.065-0.052c1.972-1.492,3.944-2.997,5.903-4.502c32.434-25.221,62.248-54.295,89.272-84.835
		c0.143-0.156,0.285-0.311,0.415-0.467c5.06-5.734,10.016-11.508,14.894-17.333c101.83-121.81,159.939-259.084,163.17-266.791
		c0.817-1.933,2.711-3.191,4.826-3.191h128.829l0.052,9.51H876.497c-6.72,15.698-40.141,90.932-96.459,176.001
		c-3.01,4.58-6.111,9.198-9.276,13.83c17.761-13.765,80.956-63.143,106.592-89.596c0.091-0.091,0.208-0.182,0.441-0.091
		c0.207,0.078,0.207,0.182,0.207,0.311c-0.091,6.993,0.156,14.012,0.35,20.226c0.246,6.824,0.454,13.272,0.208,18.319
		c-0.221,4.074,2.115,7.68,5.929,9.159c3.789,1.505,7.953,0.467,10.6-2.66l33.186-39.193c0.065-0.078,0.143-0.208,0.363-0.13
		c0.233,0.052,0.247,0.195,0.259,0.285l13.272,66.257c0.908,4.606,4.826,7.836,9.523,7.914h0.13c4.632,0,8.562-3.14,9.587-7.667
		l17.553-77.505c0.039-0.143,0.078-0.26,0.337-0.272c0.272-0.039,0.311,0.065,0.376,0.221l9.004,25.039
		c1.453,4.048,5.112,6.578,9.458,6.513c0.701-0.013,1.375-0.091,2.024-0.259c0.259-0.052,0.519-0.104,0.778-0.195
		c0.273-0.104,0.558-0.195,0.831-0.324c0.026,0.026,0.026,0,0.026,0l-4.437,16.762c-16.412,61.988-5.708,128.024,29.463,181.631
		C1035.048,1037.315,1039.278,1051.833,1039.278,1066.532z"/>
	<g>
		<path fill="#FFFFFF" d="M1042.293,1274.758c-30.707-1.034-56.572-4.257-77.597-9.675c-21.032-5.419-38.315-12.966-51.861-22.641
			c-13.546-9.676-23.995-21.48-31.348-35.412c-7.354-13.933-12.645-29.928-15.868-47.991c-3.229-18.057-5.097-38.12-5.612-60.181
			c-0.519-22.06-0.647-46.115-0.387-72.179v-28.253h62.697v29.027c0,17.548,0.061,33.93,0.193,49.151
			c0.128,15.226,1.095,29.22,2.904,41.992c1.801,12.771,4.578,24.255,8.32,34.445c3.738,10.195,9.156,19.096,16.256,26.703
			c7.093,7.614,16.187,13.872,27.284,18.771c11.09,4.904,24.637,8.514,40.637,10.837c-2.067-7.995-3.676-16.189-4.837-24.576
			c-1.16-8.382-2.128-16.836-2.902-25.35c-1.548-14.96-2.71-30.248-3.483-45.861c-0.775-15.607-1.422-31.669-1.936-48.184
			l41.024-12.771l-61.148-0.775l0.775-62.696h19.35c0-5.673,0-11.157,0-16.449c0-5.286,0.255-10.77,0.775-16.449l62.697,0.775
			c0,5.677,0,11.163,0,16.447c0,5.291-0.26,10.777-0.775,16.448l20.899,0.775l-0.773,62.697h-20.126
			c0.515,17.288,1.028,34.317,1.548,51.086c0.515,16.775,1.803,32.896,3.871,48.377c1.288,12.905,2.836,24.902,4.643,35.992
			c1.803,11.098,3.931,20.965,6.386,29.607c2.448,8.648,5.286,15.807,8.514,21.479c3.223,5.679,6.772,9.543,10.644,11.611
			l-27.865,56.891c-13.42-6.452-24.642-17.415-33.672-32.896L1042.293,1274.758z"/>
	</g>
</g>
<g>
	<path fill="#E62818" d="M3659.685,689.616c0,58.497-35.98,108.581-87.007,129.354c-35.571-61.093-55.349-107.887-57.127-112.155
		c-0.765-1.796-2.526-2.97-4.5-2.97h-129.87c-0.48-4.678-0.729-9.426-0.729-14.228c0-77.1,62.516-139.616,139.616-139.616
		C3597.169,550,3659.685,612.516,3659.685,689.616z"/>
	<path fill="#187FB7" d="M3022.52,1066.313c-0.302-1.565-0.605-3.113-0.889-4.696c60.364-46.082,111.444-106.144,151.995-163.929
		h0.018c0.711-0.551,2.028-1.583,3.86-2.97c-2.597,3.806-5.229,7.612-7.915,11.436h-0.018
		C3130.086,962.339,3080.696,1020.658,3022.52,1066.313z"/>
	<path fill="#2E5A8B" d="M3007.9,1077.352c-1.205,0.919-2.422,1.789-3.652,2.658l-5.081-7.118l-0.211-0.286
		c0.82-0.584,1.615-1.168,2.435-1.764L3007.9,1077.352z"/>
	<path fill="#187FB7" d="M3173.643,897.689c0.711-0.551,2.028-1.583,3.86-2.97c-2.597,3.806-5.229,7.612-7.915,11.436h-0.018
		c-39.484,56.184-88.874,114.503-147.051,160.159c-0.302-1.565-0.605-3.113-0.889-4.696
		c60.364-46.082,111.444-106.144,151.995-163.929H3173.643z"/>
	<g>
		<path fill="#187FB7" d="M3791.529,1070.843c-1.354-0.919-2.683-1.901-4.025-2.882c-34.246-24.992-65.599-54.493-93.845-85.697
			c-0.087-0.099-0.187-0.211-0.286-0.311c-6.422-7.093-12.682-14.285-18.794-21.527c-0.124-0.149-0.223-0.273-0.286-0.348
			c-0.025-0.037-0.062-0.074-0.087-0.112c-7.714-9.18-15.167-18.434-22.347-27.7h-0.012c-0.025-0.037-0.037-0.074-0.074-0.087
			c-29.452-38.072-54.394-76.418-74.505-110.44c-0.745-1.255-1.491-2.522-2.223-3.764c-35.551-60.717-55.313-106.801-57.127-111.086
			c-0.808-1.838-2.634-3.043-4.683-3.043h-237.203c-2.025,0-3.838,1.205-4.621,3.056c-3.093,7.378-58.729,138.811-156.227,255.438
			c-4.67,5.577-9.416,11.105-14.26,16.595c-0.124,0.149-0.261,0.298-0.397,0.447c-25.874,29.24-54.419,57.077-85.473,81.225
			c-1.876,1.441-3.764,2.882-5.652,4.31c-0.025,0.025-0.05,0.037-0.062,0.05c-2.634,1.987-5.279,3.95-7.95,5.875
			c-0.82,0.596-1.615,1.18-2.435,1.764l0.211,0.286c-7.229,5.515-14.67,10.943-22.297,16.185l246.022,246.022l72.169,72.182
			l1.242,1.242c23.067,23.067,52.68,37.19,84.666,40.619c1.143,0.124,2.298,0.236,3.428,0.335h0.074
			c0.782,0.075,1.578,0.149,2.36,0.186c0.758,0.075,1.515,0.099,2.286,0.137c0.919,0.062,1.851,0.112,2.77,0.124
			c0.695,0.037,1.366,0.062,2.062,0.062c0.82,0.012,1.652,0.012,2.497,0.012c9.825,0,19.465-0.994,28.855-2.932
			c26.843-5.515,51.5-18.732,71.312-38.544l257.674-257.674l62.841-62.841c-8.732-5.528-17.241-11.341-25.452-17.316
			L3791.529,1070.843z"/>
		<path fill="#187FB7" d="M3169.592,906.157h-0.025c-39.476,56.183-88.876,114.502-147.047,160.152
			c-0.298-1.565-0.609-3.105-0.894-4.695c60.369-46.084,111.447-106.142,152.003-163.928h0.013c0.708-0.547,2.024-1.578,3.863-2.969
			C3174.908,898.531,3172.275,902.332,3169.592,906.157z"/>
		<path fill="#187FB7" d="M3521.868,799.27c-0.075-0.075-0.161-0.161-0.397-0.099c-0.224,0.099-0.224,0.224-0.224,0.348v49.426
			c0,3.913-2.372,7.354-6.037,8.782c-3.665,1.404-7.714,0.447-10.347-2.46l-27.278-29.998c-0.074-0.075-0.149-0.161-0.36-0.112
			c-0.211,0.075-0.236,0.199-0.249,0.286l-8.608,52.99c-0.659,4.124-3.901,7.267-8.025,7.838c-4.124,0.547-8.074-1.615-9.838-5.403
			l-37.029-80.517c-0.05-0.112-0.124-0.199-0.335-0.199c-0.236,0.025-0.286,0.124-0.323,0.248L3404,827.951
			c-0.075,0.248-0.162,0.484-0.261,0.708c-0.074,0.186-0.149,0.36-0.236,0.522c-0.124,0.286-0.261,0.547-0.422,0.82
			c-0.311,0.509-0.658,1.006-1.068,1.441c-0.025,0.037-0.062,0.062-0.075,0.087c-0.211,0.224-0.447,0.46-0.67,0.658
			c-0.274,0.248-0.572,0.472-0.882,0.671c-0.223,0.161-0.459,0.311-0.708,0.447c-0.012,0.012-0.05,0.037-0.074,0.05
			c-0.261,0.124-0.534,0.248-0.795,0.373c-0.013,0.025-0.05,0.037-0.087,0.037c0,0,0,0.025-0.025,0
			c-0.261,0.124-0.534,0.211-0.795,0.311c-0.249,0.087-0.497,0.137-0.745,0.186c-0.621,0.161-1.267,0.236-1.938,0.248
			c-4.161,0.062-7.664-2.36-9.055-6.236l-8.62-23.974c-0.062-0.149-0.1-0.248-0.36-0.211c-0.248,0.012-0.286,0.124-0.323,0.261
			l-16.806,74.207c-0.981,4.335-4.745,7.341-9.179,7.341h-0.124c-4.497-0.074-8.248-3.167-9.118-7.577l-12.707-63.437
			c-0.012-0.087-0.025-0.224-0.248-0.273c-0.211-0.075-0.286,0.05-0.348,0.124l-31.774,37.526
			c-2.534,2.994-6.521,3.987-10.149,2.546c-3.652-1.416-5.888-4.869-5.677-8.77c0.236-4.832,0.037-11.005-0.199-17.539
			c-0.186-5.95-0.422-12.67-0.335-19.365c0-0.124,0-0.224-0.198-0.298c-0.224-0.087-0.335,0-0.423,0.087
			c-24.545,25.328-85.051,72.604-102.056,85.784c3.031-4.434,6-8.857,8.882-13.241c53.922-81.448,85.92-153.481,92.354-168.511
			h231.725c4.981,11.403,24.818,55.661,58.021,111.981c10.409,17.651,22.123,36.507,35.104,55.897
			c5.913,8.832,12.099,17.8,18.533,26.818L3521.868,799.27z"/>
	</g>
	<path fill="#F4F4F4" d="M3622.14,907.649l-100.275-108.385c-0.071-0.071-0.16-0.16-0.391-0.089
		c-0.231,0.089-0.231,0.213-0.231,0.338v49.426c0,3.913-2.365,7.363-6.029,8.786c-3.664,1.405-7.719,0.445-10.351-2.454
		l-27.283-30.004c-0.071-0.071-0.142-0.16-0.356-0.107c-0.213,0.071-0.231,0.196-0.249,0.285l-8.608,52.983
		c-0.658,4.126-3.895,7.274-8.021,7.843c-4.126,0.551-8.074-1.619-9.835-5.407l-37.03-80.515c-0.053-0.107-0.125-0.196-0.338-0.196
		c-0.231,0.018-0.285,0.125-0.32,0.249l-8.822,27.55c-0.071,0.249-0.16,0.48-0.267,0.711c-0.071,0.178-0.142,0.356-0.231,0.516
		c-0.125,0.285-0.267,0.551-0.427,0.818c-0.302,0.516-0.658,1.014-1.067,1.441c-0.018,0.036-0.053,0.071-0.071,0.089
		c-0.213,0.231-0.445,0.462-0.676,0.658c-0.267,0.249-0.569,0.48-0.871,0.676c-0.231,0.16-0.462,0.302-0.711,0.445
		c-0.018,0.018-0.053,0.036-0.071,0.053c-0.267,0.125-0.534,0.249-0.801,0.373c-0.018,0.018-0.053,0.036-0.089,0.036l1.298-6.314
		l-0.587-114.503h111.053c4.98,11.4,24.811,55.669,58.016,111.977c10.405,17.661,22.125,36.514,35.109,55.9
		C3609.512,889.668,3615.702,898.631,3622.14,907.649z"/>
	<path fill="#FFFFFF" d="M3400.017,827.454l-1.298,6.314c0,0,0,0.018-0.018,0c-0.267,0.125-0.533,0.213-0.8,0.302
		c-0.249,0.089-0.498,0.142-0.747,0.196c-0.623,0.16-1.263,0.231-1.939,0.249c-4.162,0.053-7.666-2.365-9.053-6.243l-8.626-23.975
		c-0.053-0.142-0.089-0.249-0.356-0.213c-0.249,0.018-0.284,0.125-0.32,0.267l-16.807,74.201c-0.978,4.34-4.749,7.345-9.177,7.345
		h-0.125c-4.5-0.071-8.252-3.166-9.124-7.577l-12.699-63.441c-0.018-0.089-0.036-0.213-0.249-0.267
		c-0.213-0.071-0.285,0.053-0.356,0.125l-31.765,37.528c-2.543,2.988-6.527,3.984-10.156,2.543
		c-3.646-1.423-5.887-4.873-5.674-8.768c0.231-4.838,0.036-11.009-0.196-17.537c-0.196-5.958-0.427-12.681-0.338-19.368
		c0-0.125,0-0.231-0.196-0.302c-0.231-0.089-0.338,0-0.427,0.089c-24.544,25.327-85.05,72.6-102.053,85.78
		c3.023-4.429,5.994-8.857,8.875-13.232c53.926-81.458,85.922-153.489,92.36-168.518h120.675L3400.017,827.454z"/>
	<path fill="#1E8CBC" d="M3434.606,1063.701c0,6.646-0.907,13.341-2.758,19.862l-3.639,12.831
		c-13.888,48.954-38.271,94.305-71.461,132.886c-6.074,7.068-9.254,15.924-9.254,24.918c0,4.981,0.981,10.012,2.993,14.782
		l74.815,178.088c-9.391,1.938-19.03,2.932-28.855,2.932h-1.503c-0.335,0-0.658,0-0.994-0.012c-0.696,0-1.366-0.025-2.062-0.062
		c-0.919-0.012-1.851-0.062-2.77-0.124c-0.77-0.037-1.528-0.062-2.286-0.137c-0.782-0.037-1.578-0.112-2.36-0.186h-0.074
		c-1.131-0.099-2.286-0.211-3.428-0.335c-32.371-3.64-62.679-18.632-85.908-41.861l-72.169-72.182l-246.022-246.022
		c7.627-5.242,15.067-10.67,22.297-16.185l-0.211-0.286c0.82-0.584,1.615-1.168,2.435-1.764c2.671-1.925,5.317-3.888,7.95-5.875
		c0.012-0.012,0.037-0.025,0.062-0.05c1.888-1.428,3.776-2.869,5.652-4.31c31.054-24.148,59.599-51.985,85.473-81.225
		c0.137-0.149,0.273-0.298,0.397-0.447c4.844-5.49,9.59-11.018,14.26-16.595c97.497-116.626,153.134-248.059,156.227-255.438
		c0.782-1.851,2.596-3.056,4.621-3.056h123.346l0.05,9.105h-120.676c-6.434,15.03-38.432,87.063-92.354,168.511
		c-2.882,4.385-5.851,8.807-8.882,13.241c17.005-13.179,77.511-60.456,102.056-85.784c0.087-0.087,0.199-0.174,0.423-0.087
		c0.198,0.075,0.198,0.174,0.198,0.298c-0.087,6.695,0.149,13.415,0.335,19.365c0.236,6.534,0.435,12.707,0.199,17.539
		c-0.211,3.9,2.025,7.354,5.677,8.77c3.627,1.441,7.615,0.447,10.149-2.546l31.774-37.526c0.062-0.075,0.137-0.199,0.348-0.124
		c0.223,0.05,0.236,0.186,0.248,0.273l12.707,63.437c0.87,4.41,4.621,7.503,9.118,7.577h0.124c4.435,0,8.198-3.006,9.179-7.341
		l16.806-74.207c0.037-0.137,0.075-0.248,0.323-0.261c0.261-0.037,0.298,0.062,0.36,0.211l8.62,23.974
		c1.391,3.876,4.894,6.298,9.055,6.236c0.671-0.012,1.317-0.087,1.938-0.248c0.248-0.05,0.497-0.099,0.745-0.186
		c0.261-0.099,0.534-0.186,0.795-0.311c0.025,0.025,0.025,0,0.025,0l-4.248,16.049c-15.713,59.35-5.465,122.576,28.209,173.902
		C3430.557,1035.727,3434.606,1049.627,3434.606,1063.701z"/>
</g>
</svg>
