<svg xmlns:xlink="http://www.w3.org/1999/xlink" xmlns="http://www.w3.org/2000/svg" width="842" height="900" viewBox="0 0 842 900" fill="none">
<g clip-path="url(#clip0)">
<path d="M683.685 139.616C683.685 198.113 647.705 248.197 596.678 268.97C561.107 207.877 541.329 161.083 539.551 156.815C538.786 155.019 537.025 153.845 535.051 153.845H405.181C404.701 149.167 404.452 144.419 404.452 139.617C404.452 62.517 466.968 0.000976574 544.068 0.000976574C621.169 -2.34256e-05 683.685 62.516 683.685 139.616Z" fill="#E62818"/>
<path d="M46.52 516.313C46.218 514.748 45.9151 513.2 45.6311 511.617C105.995 465.535 157.075 405.473 197.626 347.688H197.644C198.355 347.137 199.672 346.105 201.504 344.718C198.907 348.524 196.275 352.33 193.589 356.154H193.571C154.086 412.339 104.696 470.658 46.52 516.313Z" fill="#187FB7"/>
<path d="M31.8999 527.352C30.6949 528.271 29.478 529.141 28.248 530.01L23.167 522.892L22.9561 522.606C23.7761 522.022 24.5711 521.438 25.3911 520.842L31.8999 527.352Z" fill="#2E5A8B"/>
<path d="M197.643 347.689C198.354 347.138 199.671 346.106 201.503 344.719C198.906 348.525 196.274 352.331 193.588 356.155H193.57C154.086 412.339 104.696 470.658 46.519 516.314C46.217 514.749 45.9139 513.201 45.6299 511.618C105.994 465.536 157.074 405.474 197.625 347.689H197.643Z" fill="#187FB7"/>
<path d="M815.529 520.843C814.175 519.924 812.846 518.942 811.504 517.961C777.258 492.969 745.905 463.468 717.659 432.264C717.572 432.165 717.472 432.053 717.373 431.953C710.951 424.86 704.691 417.668 698.579 410.426C698.455 410.277 698.356 410.153 698.293 410.078C698.268 410.041 698.231 410.004 698.206 409.966C690.492 400.786 683.039 391.532 675.859 382.266H675.847C675.822 382.229 675.81 382.192 675.773 382.179C646.321 344.107 621.379 305.761 601.268 271.739C600.523 270.484 599.777 269.217 599.045 267.975C563.494 207.258 543.732 161.174 541.918 156.889C541.11 155.051 539.284 153.846 537.235 153.846H300.032C298.007 153.846 296.194 155.051 295.411 156.902C292.318 164.28 236.682 295.713 139.184 412.34C134.514 417.917 129.768 423.445 124.924 428.935C124.8 429.084 124.663 429.233 124.527 429.382C98.6531 458.622 70.108 486.459 39.054 510.607C37.178 512.048 35.2901 513.489 33.4021 514.917C33.3771 514.942 33.3521 514.954 33.3401 514.967C30.7061 516.954 28.0609 518.917 25.3899 520.842C24.5699 521.438 23.7751 522.022 22.9551 522.606L23.166 522.892C15.937 528.407 8.4959 533.835 0.868896 539.077L246.891 785.099L319.06 857.281L320.302 858.523C343.369 881.59 372.982 895.713 404.968 899.142C406.111 899.266 407.266 899.378 408.396 899.477H408.47C409.252 899.552 410.048 899.626 410.83 899.663C411.588 899.738 412.345 899.762 413.116 899.8C414.035 899.862 414.967 899.912 415.886 899.924C416.581 899.961 417.252 899.986 417.948 899.986C418.768 899.998 419.6 899.998 420.445 899.998C430.27 899.998 439.91 899.004 449.3 897.066C476.143 891.551 500.8 878.334 520.612 858.522L778.286 600.848L841.127 538.007C832.395 532.479 823.886 526.666 815.675 520.691L815.529 520.843Z" fill="#187FB7"/>
<path d="M193.592 356.157H193.567C154.091 412.34 104.691 470.659 46.52 516.309C46.222 514.744 45.911 513.204 45.626 511.614C105.995 465.53 157.073 405.472 197.629 347.686H197.642C198.35 347.139 199.666 346.108 201.505 344.717C198.908 348.531 196.275 352.332 193.592 356.157Z" fill="#187FB7"/>
<path d="M545.868 249.27C545.793 249.195 545.707 249.109 545.471 249.171C545.247 249.27 545.247 249.395 545.247 249.519V298.945C545.247 302.858 542.875 306.299 539.21 307.727C535.545 309.131 531.496 308.174 528.863 305.267L501.585 275.269C501.511 275.194 501.436 275.108 501.225 275.157C501.014 275.232 500.989 275.356 500.976 275.443L492.368 328.433C491.709 332.557 488.467 335.7 484.343 336.271C480.219 336.818 476.269 334.656 474.505 330.868L437.476 250.351C437.426 250.239 437.352 250.152 437.141 250.152C436.905 250.177 436.855 250.276 436.818 250.4L428 277.951C427.925 278.199 427.838 278.435 427.739 278.659C427.665 278.845 427.59 279.019 427.503 279.181C427.379 279.467 427.242 279.728 427.081 280.001C426.77 280.51 426.423 281.007 426.013 281.442C425.988 281.479 425.951 281.504 425.938 281.529C425.727 281.753 425.491 281.989 425.268 282.187C424.994 282.435 424.696 282.659 424.386 282.858C424.163 283.019 423.927 283.169 423.678 283.305C423.666 283.317 423.628 283.342 423.604 283.355C423.343 283.479 423.07 283.603 422.809 283.728C422.796 283.753 422.759 283.765 422.722 283.765C422.722 283.765 422.722 283.79 422.697 283.765C422.436 283.889 422.163 283.976 421.902 284.076C421.653 284.163 421.405 284.213 421.157 284.262C420.536 284.423 419.89 284.498 419.219 284.51C415.058 284.572 411.555 282.15 410.164 278.274L401.544 254.3C401.482 254.151 401.444 254.052 401.184 254.089C400.936 254.101 400.898 254.213 400.861 254.35L384.055 328.557C383.074 332.892 379.31 335.898 374.876 335.898H374.752C370.255 335.824 366.504 332.731 365.634 328.321L352.927 264.884C352.915 264.797 352.902 264.66 352.679 264.611C352.468 264.536 352.393 264.661 352.331 264.735L320.557 302.261C318.023 305.255 314.036 306.248 310.408 304.807C306.756 303.391 304.52 299.938 304.731 296.037C304.967 291.205 304.768 285.032 304.532 278.498C304.346 272.548 304.11 265.828 304.197 259.133C304.197 259.009 304.197 258.909 303.999 258.835C303.775 258.748 303.664 258.835 303.576 258.922C279.031 284.25 218.525 331.526 201.52 344.706C204.551 340.272 207.52 335.849 210.402 331.465C264.324 250.017 296.322 177.984 302.756 162.954H534.481C539.462 174.357 559.299 218.615 592.502 274.935C602.911 292.586 614.625 311.442 627.606 330.832C633.519 339.664 639.705 348.632 646.139 357.65L545.868 249.27Z" fill="#187FB7"/>
<path d="M646.14 357.649L545.865 249.264C545.794 249.193 545.705 249.104 545.474 249.175C545.243 249.264 545.243 249.388 545.243 249.513V298.939C545.243 302.852 542.878 306.302 539.214 307.725C535.55 309.13 531.495 308.17 528.863 305.271L501.58 275.267C501.509 275.196 501.438 275.107 501.224 275.16C501.011 275.231 500.993 275.356 500.975 275.445L492.367 328.428C491.709 332.554 488.472 335.702 484.346 336.271C480.22 336.822 476.272 334.652 474.511 330.864L437.481 250.349C437.428 250.242 437.356 250.153 437.143 250.153C436.912 250.171 436.858 250.278 436.823 250.402L428.001 277.952C427.93 278.201 427.841 278.432 427.734 278.663C427.663 278.841 427.592 279.019 427.503 279.179C427.378 279.464 427.236 279.73 427.076 279.997C426.774 280.513 426.418 281.011 426.009 281.438C425.991 281.474 425.956 281.509 425.938 281.527C425.725 281.758 425.493 281.989 425.262 282.185C424.995 282.434 424.693 282.665 424.391 282.861C424.16 283.021 423.929 283.163 423.68 283.306C423.662 283.324 423.627 283.342 423.609 283.359C423.342 283.484 423.075 283.608 422.808 283.732C422.79 283.75 422.755 283.768 422.719 283.768L424.017 277.454L423.43 162.951H534.483C539.463 174.351 559.294 218.62 592.499 274.928C602.904 292.589 614.624 311.442 627.608 330.828C633.512 339.668 639.702 348.631 646.14 357.649Z" fill="#F4F4F4"/>
<path d="M424.017 277.454L422.719 283.768C422.719 283.768 422.719 283.786 422.701 283.768C422.434 283.893 422.168 283.981 421.901 284.07C421.652 284.159 421.403 284.212 421.154 284.266C420.531 284.426 419.891 284.497 419.215 284.515C415.053 284.568 411.549 282.15 410.162 278.272L401.536 254.297C401.483 254.155 401.447 254.048 401.18 254.084C400.931 254.102 400.896 254.209 400.86 254.351L384.053 328.552C383.075 332.892 379.304 335.897 374.876 335.897H374.751C370.251 335.826 366.499 332.731 365.627 328.32L352.928 264.879C352.91 264.79 352.892 264.666 352.679 264.612C352.466 264.541 352.394 264.665 352.323 264.737L320.558 302.265C318.015 305.253 314.031 306.249 310.402 304.808C306.756 303.385 304.515 299.935 304.728 296.04C304.959 291.202 304.764 285.031 304.532 278.503C304.336 272.545 304.105 265.822 304.194 259.135C304.194 259.01 304.194 258.904 303.998 258.833C303.767 258.744 303.66 258.833 303.571 258.922C279.027 284.249 218.521 331.522 201.518 344.702C204.541 340.273 207.512 335.845 210.393 331.47C264.319 250.012 296.315 177.981 302.753 162.952H423.428L424.017 277.454Z" fill="white"/>
<path d="M458.606 513.701C458.606 520.347 457.699 527.042 455.848 533.563L452.209 546.394C438.321 595.348 413.938 640.699 380.748 679.28C374.674 686.348 371.494 695.204 371.494 704.198C371.494 709.179 372.475 714.21 374.487 718.98L449.302 897.068C439.911 899.006 430.272 900 420.447 900H418.944C418.609 900 418.286 900 417.95 899.988C417.254 899.988 416.584 899.963 415.888 899.926C414.969 899.914 414.037 899.864 413.118 899.802C412.348 899.765 411.59 899.74 410.832 899.665C410.05 899.628 409.254 899.553 408.472 899.479H408.398C407.267 899.38 406.112 899.268 404.97 899.144C372.599 895.504 342.291 880.512 319.062 857.283L246.893 785.101L0.871094 539.079C8.49809 533.837 15.938 528.409 23.168 522.894L22.957 522.608C23.777 522.024 24.5721 521.44 25.3921 520.844C28.0631 518.919 30.709 516.956 33.342 514.969C33.354 514.957 33.3791 514.944 33.4041 514.919C35.2921 513.491 37.1799 512.05 39.0559 510.609C70.1099 486.461 98.6551 458.624 124.529 429.384C124.666 429.235 124.802 429.086 124.926 428.937C129.77 423.447 134.516 417.919 139.186 412.342C236.683 295.716 292.32 164.283 295.413 156.904C296.195 155.053 298.009 153.848 300.034 153.848H423.38L423.43 162.953H302.754C296.32 177.983 264.322 250.016 210.4 331.464C207.518 335.849 204.549 340.271 201.518 344.705C218.523 331.526 279.029 284.249 303.574 258.921C303.661 258.834 303.773 258.747 303.997 258.834C304.195 258.909 304.195 259.008 304.195 259.132C304.108 265.827 304.344 272.547 304.53 278.497C304.766 285.031 304.965 291.204 304.729 296.036C304.518 299.936 306.754 303.39 310.406 304.806C314.033 306.247 318.021 305.253 320.555 302.26L352.329 264.734C352.391 264.659 352.466 264.535 352.677 264.61C352.9 264.66 352.913 264.796 352.925 264.883L365.632 328.32C366.502 332.73 370.253 335.823 374.75 335.897H374.874C379.309 335.897 383.072 332.891 384.053 328.556L400.859 254.349C400.896 254.212 400.934 254.101 401.182 254.088C401.443 254.051 401.48 254.15 401.542 254.299L410.162 278.273C411.553 282.149 415.056 284.571 419.217 284.509C419.888 284.497 420.534 284.422 421.155 284.261C421.403 284.211 421.652 284.162 421.9 284.075C422.161 283.976 422.434 283.889 422.695 283.764C422.72 283.789 422.72 283.764 422.72 283.764L418.472 299.813C402.759 359.163 413.007 422.389 446.681 473.715C454.557 485.727 458.606 499.627 458.606 513.701Z" fill="#1E8CBC"/>
</g>
<defs>
<clipPath id="clip0">
<rect width="840.258" height="899.999" fill="white" transform="translate(0.868896 0.000976562)"/>
</clipPath>
</defs>
</svg>