<svg id="svg" version="1.1" xmlns="http://www.w3.org/2000/svg" xmlns:xlink="http://www.w3.org/1999/xlink" width="400" height="400" viewBox="0, 0, 400,400"><g id="svgg"><path id="path0" d="M174.922 85.622 C 159.346 85.698,154.501 85.831,154.156 86.194 C 153.909 86.454,152.871 88.552,151.849 90.857 C 140.404 116.671,121.046 149.456,104.611 170.857 C 102.519 173.581,100.266 176.517,99.604 177.383 C 87.145 193.668,67.805 212.902,52.762 223.968 C 51.505 224.893,50.219 225.890,49.905 226.185 C 49.087 226.951,43.813 230.803,42.571 231.542 C 41.995 231.884,41.527 232.256,41.531 232.368 C 41.560 233.137,166.368 357.163,169.333 359.369 C 188.114 373.341,214.687 373.315,233.348 359.307 C 236.592 356.872,361.143 232.861,361.143 232.066 C 361.143 231.892,358.677 230.096,355.663 228.075 C 343.516 219.930,333.792 211.647,321.140 198.667 C 310.120 187.360,303.728 179.689,290.505 161.905 C 285.562 155.257,269.541 130.213,269.630 129.273 C 269.646 129.097,269.433 128.695,269.156 128.381 C 268.271 127.379,265.117 121.829,260.172 112.571 C 257.607 107.770,250.170 92.687,248.746 89.398 C 248.036 87.757,247.169 86.262,246.820 86.075 C 246.132 85.707,207.559 85.464,174.922 85.622 M246.286 92.286 C 253.289 107.431,265.373 129.821,272.551 140.952 C 278.972 150.909,281.208 154.303,283.469 157.524 C 288.434 164.598,287.919 164.154,275.048 150.278 C 271.171 146.100,266.714 141.301,265.143 139.615 C 263.571 137.929,259.604 133.641,256.327 130.085 C 253.049 126.529,250.021 123.306,249.598 122.924 L 248.829 122.229 248.781 132.439 C 248.726 143.775,248.676 143.998,246.068 144.520 C 244.173 144.899,243.323 144.248,237.702 138.122 C 234.708 134.858,232.213 132.232,232.159 132.286 C 232.104 132.340,231.350 136.755,230.482 142.097 C 228.372 155.083,228.298 155.256,224.884 155.159 C 222.531 155.092,223.086 156.086,212.686 133.333 C 210.052 127.571,207.853 122.804,207.798 122.738 C 207.743 122.672,206.823 125.246,205.753 128.457 C 203.617 134.863,203.334 135.238,200.636 135.238 C 198.409 135.238,198.038 134.751,196.001 129.145 C 195.063 126.565,194.212 124.371,194.109 124.268 C 193.822 123.981,193.658 124.593,191.833 132.762 C 186.901 154.831,187.157 153.973,185.289 154.684 C 181.604 156.084,180.957 154.921,178.492 142.476 C 177.351 136.714,176.215 131.061,175.968 129.913 L 175.518 127.825 174.191 129.341 C 173.461 130.175,171.651 132.314,170.169 134.095 C 163.302 142.345,162.363 143.238,160.559 143.238 C 157.934 143.238,157.345 142.182,157.287 137.377 C 157.261 135.258,157.132 131.781,157.001 129.651 L 156.762 125.778 153.302 129.079 C 149.554 132.656,141.102 139.900,134.050 145.579 C 127.485 150.865,119.503 157.150,118.894 157.513 C 118.248 157.898,117.996 158.322,122.590 151.288 C 134.417 133.179,148.026 108.500,154.699 93.060 L 156.381 89.167 200.607 89.155 L 244.832 89.143 246.286 92.286 " stroke="none" fill="#1c87b7" fill-rule="evenodd"></path><path id="path1" d="M243.048 27.265 C 242.524 27.356,240.810 27.619,239.238 27.850 C 218.107 30.948,199.795 49.348,195.954 71.343 C 195.318 74.989,195.052 84.702,195.574 85.225 C 195.738 85.389,207.336 85.610,221.346 85.714 C 237.571 85.836,246.954 86.043,247.191 86.286 C 247.395 86.495,248.238 88.210,249.065 90.095 C 252.774 98.554,263.370 119.036,267.751 126.219 C 269.529 129.133,270.064 129.165,274.444 126.623 C 308.096 107.095,310.995 60.833,280.029 37.488 C 270.267 30.129,253.395 25.465,243.048 27.265 " stroke="none" fill="#e22c1c" fill-rule="evenodd"></path><path id="path2" d="M0.000 200.000 L 0.000 400.000 200.000 400.000 L 400.000 400.000 400.000 200.000 L 400.000 0.000 200.000 0.000 L 0.000 0.000 0.000 200.000 M257.171 27.651 C 307.063 36.029,318.062 104.231,273.250 127.354 L 269.738 129.167 271.230 131.536 C 272.659 133.805,275.748 138.876,276.953 140.930 C 277.267 141.466,277.825 142.333,278.191 142.857 C 278.557 143.381,281.345 147.546,284.386 152.113 C 289.048 159.115,291.278 162.291,293.280 164.780 C 293.456 165.000,294.255 166.114,295.054 167.257 C 297.476 170.719,299.079 172.746,299.649 173.067 C 299.947 173.234,300.190 173.554,300.190 173.778 C 300.190 174.002,300.662 174.728,301.238 175.392 C 301.814 176.056,302.800 177.261,303.429 178.071 C 305.716 181.020,308.425 184.203,310.381 186.242 C 311.481 187.388,312.381 188.461,312.381 188.626 C 312.381 189.365,329.169 206.389,333.714 210.258 C 335.286 211.596,337.343 213.427,338.286 214.327 C 339.229 215.226,340.631 216.442,341.401 217.029 C 349.330 223.063,352.582 225.448,356.878 228.381 C 359.641 230.267,361.902 231.907,361.903 232.026 C 361.905 232.236,238.513 355.670,236.553 357.419 C 236.019 357.896,234.949 358.714,234.175 359.238 C 233.400 359.762,232.766 360.319,232.765 360.476 C 232.763 360.633,232.579 360.762,232.356 360.762 C 232.132 360.762,231.387 361.190,230.701 361.714 C 230.014 362.238,229.316 362.667,229.149 362.667 C 228.982 362.667,228.056 363.150,227.090 363.740 C 225.384 364.783,219.385 367.380,218.098 367.633 C 218.000 367.653,216.829 367.980,215.497 368.361 C 200.204 372.735,178.646 368.667,168.614 359.515 C 168.103 359.048,166.942 358.067,166.035 357.333 C 163.863 355.578,41.143 232.874,41.143 232.458 C 41.143 232.281,42.729 230.958,44.667 229.517 C 46.605 228.076,48.362 226.749,48.571 226.569 C 48.781 226.390,50.238 225.304,51.810 224.157 C 54.531 222.170,55.594 221.338,59.305 218.286 C 60.196 217.552,61.892 216.181,63.072 215.238 C 64.252 214.295,65.372 213.128,65.561 212.644 C 65.749 212.160,66.055 211.857,66.240 211.972 C 66.994 212.438,81.839 197.788,87.830 190.667 C 89.064 189.200,90.421 187.706,90.846 187.346 C 91.271 186.986,91.504 186.686,91.363 186.679 C 91.222 186.672,91.619 186.154,92.245 185.528 C 92.898 184.875,93.267 184.200,93.109 183.945 C 92.945 183.681,93.000 183.603,93.244 183.754 C 93.469 183.893,94.014 183.534,94.456 182.956 C 94.897 182.378,96.025 181.030,96.962 179.962 C 97.899 178.893,99.052 177.490,99.523 176.844 C 99.995 176.198,101.238 174.561,102.286 173.206 C 103.333 171.851,104.533 170.265,104.952 169.681 C 105.371 169.098,106.100 168.156,106.571 167.588 C 107.043 167.021,107.429 166.367,107.429 166.135 C 107.429 165.904,107.563 165.714,107.727 165.714 C 107.892 165.714,108.350 165.157,108.746 164.476 C 109.142 163.795,109.577 163.152,109.712 163.048 C 109.847 162.943,110.790 161.657,111.807 160.190 C 112.824 158.724,114.484 156.386,115.495 154.994 C 116.506 153.603,117.333 152.352,117.333 152.214 C 117.333 152.076,118.338 150.472,119.567 148.648 C 123.258 143.169,125.294 139.974,125.586 139.204 C 125.738 138.804,126.411 137.705,127.082 136.762 C 127.753 135.819,128.583 134.368,128.928 133.537 C 129.272 132.706,129.694 131.935,129.866 131.823 C 130.037 131.711,131.004 130.162,132.014 128.381 C 133.025 126.600,134.341 124.375,134.940 123.436 C 135.539 122.498,136.135 121.298,136.264 120.770 C 136.393 120.242,136.609 119.724,136.744 119.619 C 137.597 118.957,148.142 98.540,148.746 96.381 C 148.776 96.276,149.436 94.948,150.214 93.429 C 150.992 91.910,151.524 90.667,151.397 90.667 C 151.029 90.667,153.532 86.337,154.205 85.810 C 154.673 85.442,159.433 85.333,175.025 85.333 L 195.238 85.333 195.246 80.095 C 195.287 54.348,214.115 31.778,238.857 27.817 C 240.429 27.566,241.971 27.310,242.286 27.248 C 244.256 26.862,254.053 27.127,257.171 27.651 M156.682 90.000 C 156.298 90.503,155.368 92.710,155.324 93.222 C 155.310 93.388,154.804 94.424,154.201 95.524 C 153.597 96.624,153.241 97.526,153.409 97.530 C 153.577 97.533,153.543 97.661,153.333 97.815 C 153.124 97.969,151.074 101.867,148.778 106.476 C 146.482 111.086,144.382 115.084,144.111 115.361 C 143.841 115.637,143.619 116.083,143.619 116.350 C 143.619 116.929,139.490 124.455,135.460 131.223 C 133.871 133.891,132.571 136.130,132.571 136.199 C 132.571 136.268,131.744 137.666,130.732 139.305 C 129.720 140.945,128.311 143.229,127.599 144.381 C 126.888 145.533,125.658 147.405,124.867 148.539 C 124.076 149.674,123.429 150.756,123.429 150.943 C 123.429 151.130,122.886 151.958,122.222 152.784 C 120.352 155.111,121.457 155.225,124.015 152.969 C 124.635 152.422,126.960 150.566,129.181 148.844 C 132.531 146.247,138.701 141.194,140.434 139.630 C 140.672 139.414,141.744 138.556,142.815 137.722 C 143.886 136.888,144.762 136.074,144.762 135.912 C 144.762 135.751,144.922 135.619,145.118 135.619 C 145.522 135.619,147.432 133.952,152.891 128.833 C 155.172 126.695,156.814 125.423,157.023 125.633 C 157.214 125.824,157.464 129.392,157.578 133.562 C 157.803 141.766,157.920 142.210,159.967 142.659 C 161.694 143.039,162.513 142.437,166.006 138.223 C 173.359 129.354,174.893 127.619,175.381 127.619 C 175.862 127.619,176.589 129.934,176.908 132.476 C 176.981 133.052,177.309 134.638,177.637 136.000 C 177.966 137.362,178.609 140.619,179.066 143.238 C 180.417 150.978,181.272 153.723,182.439 154.073 C 185.098 154.871,186.780 153.877,187.235 151.238 C 187.361 150.505,187.616 149.305,187.802 148.571 C 188.600 145.418,189.561 141.144,190.673 135.810 C 191.022 134.133,191.544 131.990,191.834 131.048 C 192.123 130.105,192.478 128.562,192.622 127.619 C 193.295 123.237,194.178 122.752,195.399 126.095 C 195.667 126.829,196.018 127.771,196.178 128.190 C 196.338 128.610,196.856 129.981,197.328 131.238 C 198.338 133.927,199.260 134.859,200.899 134.851 C 202.171 134.845,203.790 134.136,202.667 134.077 C 202.335 134.060,202.455 133.902,202.952 133.702 C 203.424 133.513,203.810 133.038,203.810 132.647 C 203.810 132.256,203.938 131.808,204.095 131.651 C 204.252 131.494,204.402 131.208,204.429 131.016 C 204.455 130.824,204.519 130.624,204.572 130.571 C 204.625 130.519,204.721 130.133,204.785 129.714 C 204.849 129.295,205.157 128.154,205.470 127.178 C 205.782 126.202,205.922 125.274,205.781 125.117 C 205.639 124.959,205.713 124.938,205.943 125.069 C 206.193 125.211,206.565 124.695,206.861 123.797 C 207.499 121.866,207.821 121.896,208.834 123.981 C 209.287 124.914,209.756 125.616,209.876 125.542 C 209.997 125.467,210.121 125.829,210.152 126.345 C 210.183 126.860,210.483 127.586,210.818 127.957 C 211.154 128.328,211.429 128.806,211.429 129.019 C 211.429 129.575,212.554 131.754,212.977 132.015 C 213.173 132.136,213.333 132.620,213.333 133.089 C 213.333 133.559,213.478 134.106,213.655 134.305 C 213.832 134.504,214.365 135.651,214.840 136.853 C 215.342 138.123,215.871 138.937,216.102 138.794 C 216.338 138.649,216.384 138.734,216.217 139.005 C 216.061 139.257,216.142 139.712,216.395 140.017 C 216.648 140.322,216.749 140.571,216.618 140.571 C 216.488 140.571,216.962 141.729,217.673 143.143 C 218.383 144.557,219.182 146.338,219.448 147.099 C 219.714 147.861,220.262 148.890,220.665 149.385 C 221.069 149.880,221.272 150.045,221.117 149.751 C 220.929 149.395,220.984 149.308,221.281 149.491 C 221.526 149.643,221.641 149.905,221.537 150.074 C 221.256 150.529,222.496 153.938,222.861 153.712 C 223.032 153.606,223.233 153.699,223.307 153.920 C 223.502 154.505,226.185 154.747,227.092 154.262 C 227.551 154.016,227.780 153.616,227.653 153.284 C 227.534 152.975,227.598 152.822,227.795 152.943 C 227.991 153.065,228.248 152.602,228.365 151.915 C 230.031 142.124,230.444 139.304,230.255 138.997 C 230.131 138.797,230.182 138.427,230.368 138.174 C 230.554 137.921,230.748 137.114,230.799 136.381 C 230.851 135.648,231.040 134.619,231.220 134.095 C 231.400 133.571,231.647 132.836,231.768 132.461 C 232.101 131.429,233.456 132.311,235.598 134.952 C 236.576 136.157,237.547 137.143,237.758 137.143 C 237.968 137.143,238.051 137.286,237.943 137.462 C 237.662 137.917,240.553 140.647,240.942 140.293 C 241.120 140.132,241.142 140.214,240.991 140.476 C 240.820 140.774,240.948 140.952,241.333 140.952 C 241.672 140.952,241.839 141.131,241.704 141.350 C 241.410 141.826,242.239 142.931,242.684 142.656 C 242.855 142.550,243.223 142.789,243.502 143.186 C 244.142 144.101,246.532 144.032,247.597 143.068 C 248.268 142.461,248.700 132.021,248.446 122.571 C 248.427 121.854,249.325 121.656,249.718 122.292 C 249.850 122.505,250.143 122.564,250.371 122.424 C 250.598 122.283,250.690 122.323,250.575 122.513 C 250.303 122.960,251.257 123.845,251.640 123.501 C 251.800 123.356,251.816 123.441,251.674 123.688 C 251.532 123.936,251.760 124.380,252.182 124.675 C 252.603 124.970,252.834 125.324,252.696 125.463 C 252.558 125.601,252.692 125.714,252.995 125.714 C 253.297 125.714,253.839 126.057,254.197 126.476 C 254.556 126.895,254.739 127.238,254.604 127.238 C 254.469 127.238,254.665 127.577,255.039 127.991 C 255.414 128.405,255.874 128.650,256.060 128.534 C 256.247 128.419,256.353 128.494,256.295 128.701 C 256.163 129.177,259.051 132.695,259.339 132.407 C 259.455 132.291,259.741 132.576,259.974 133.042 C 260.206 133.508,260.821 134.102,261.341 134.362 C 261.861 134.622,262.292 135.054,262.299 135.322 C 262.306 135.590,263.163 136.726,264.204 137.846 C 265.244 138.966,266.232 140.124,266.400 140.418 C 266.567 140.712,266.953 140.952,267.257 140.952 C 267.561 140.952,267.767 141.105,267.714 141.291 C 267.591 141.729,273.168 147.649,273.587 147.524 C 273.762 147.471,273.862 147.643,273.810 147.905 C 273.757 148.167,273.941 148.334,274.219 148.276 C 274.496 148.219,274.627 148.328,274.509 148.519 C 274.231 148.968,275.219 149.797,275.591 149.425 C 275.746 149.270,275.816 149.318,275.746 149.532 C 275.575 150.056,279.272 154.310,279.679 154.058 C 279.856 153.949,280.000 154.161,280.000 154.530 C 280.000 155.037,280.107 155.093,280.441 154.759 C 280.775 154.425,280.760 154.171,280.379 153.712 C 279.976 153.227,279.807 153.204,279.522 153.601 C 279.268 153.953,279.231 153.895,279.393 153.398 C 279.619 152.700,278.780 151.061,278.394 151.447 C 278.281 151.560,278.084 151.378,277.956 151.044 C 277.820 150.689,277.881 150.534,278.104 150.672 C 278.313 150.801,277.955 150.122,277.307 149.164 C 276.660 148.205,275.975 147.517,275.784 147.635 C 275.593 147.753,275.524 147.622,275.631 147.345 C 275.882 146.691,273.876 143.592,273.394 143.890 C 273.191 144.015,273.146 143.923,273.293 143.685 C 273.625 143.146,271.859 140.469,271.429 140.859 C 271.257 141.015,271.217 140.863,271.339 140.520 C 271.599 139.793,270.588 138.172,270.074 138.490 C 269.880 138.610,269.835 138.414,269.974 138.053 C 270.158 137.574,270.090 137.482,269.720 137.711 C 269.389 137.915,269.307 137.875,269.481 137.593 C 269.714 137.217,268.825 135.381,268.155 134.857 C 268.022 134.752,267.791 134.278,267.643 133.804 C 267.492 133.319,267.193 133.053,266.961 133.196 C 266.708 133.353,266.660 133.272,266.836 132.987 C 267.004 132.714,266.556 131.669,265.752 130.458 C 264.998 129.322,264.381 128.312,264.381 128.213 C 264.381 128.115,263.941 127.386,263.404 126.594 C 262.867 125.803,262.162 124.595,261.837 123.911 C 261.512 123.227,261.085 122.667,260.886 122.667 C 260.688 122.667,260.632 122.496,260.761 122.286 C 261.039 121.838,259.295 118.766,258.922 119.046 C 258.781 119.152,258.746 119.131,258.842 118.999 C 259.091 118.660,257.958 116.571,257.526 116.571 C 257.328 116.571,257.260 116.328,257.375 116.029 C 257.489 115.731,257.246 115.151,256.835 114.740 C 256.424 114.329,255.883 113.372,255.632 112.612 C 255.359 111.785,255.010 111.334,254.762 111.488 C 254.497 111.651,254.435 111.515,254.590 111.110 C 254.724 110.761,254.657 110.476,254.442 110.476 C 254.226 110.476,254.155 110.306,254.284 110.098 C 254.412 109.891,254.025 108.991,253.424 108.098 C 252.823 107.206,252.017 105.619,251.633 104.571 C 251.249 103.524,250.647 102.238,250.296 101.714 C 249.944 101.190,249.436 100.207,249.165 99.529 C 248.895 98.850,248.524 98.388,248.341 98.501 C 248.158 98.614,248.111 98.440,248.236 98.115 C 248.360 97.790,248.273 97.524,248.041 97.524 C 247.809 97.524,247.619 97.095,247.619 96.571 C 247.619 96.048,247.438 95.619,247.216 95.619 C 246.994 95.619,246.918 95.448,247.048 95.238 C 247.177 95.029,247.108 94.857,246.895 94.857 C 246.681 94.857,246.301 94.171,246.050 93.333 C 245.799 92.495,245.455 91.810,245.285 91.810 C 245.115 91.810,245.063 91.584,245.168 91.309 C 245.274 91.034,245.036 90.515,244.639 90.157 C 243.611 89.226,203.250 89.350,202.658 90.286 C 202.351 90.773,202.297 90.759,202.292 90.190 C 202.284 89.324,157.342 89.137,156.682 90.000 " stroke="none" fill="#ffffff" fill-rule="evenodd"></path><path id="path3" d="M210.462 42.762 L 208.571 44.762 210.571 42.871 C 212.430 41.115,212.746 40.762,212.462 40.762 C 212.402 40.762,211.502 41.662,210.462 42.762 M165.048 85.619 C 170.652 85.678,179.824 85.678,185.429 85.619 C 191.033 85.559,186.448 85.511,175.238 85.511 C 164.029 85.511,159.443 85.559,165.048 85.619 M251.048 124.381 C 252.186 125.533,253.203 126.476,253.307 126.476 C 253.412 126.476,252.567 125.533,251.429 124.381 C 250.291 123.229,249.274 122.286,249.169 122.286 C 249.064 122.286,249.910 123.229,251.048 124.381 M153.130 129.048 L 151.048 131.238 153.238 129.156 C 155.273 127.221,155.603 126.857,155.320 126.857 C 155.261 126.857,154.275 127.843,153.130 129.048 M255.619 129.333 C 256.757 130.486,257.774 131.429,257.879 131.429 C 257.983 131.429,257.138 130.486,256.000 129.333 C 254.862 128.181,253.845 127.238,253.740 127.238 C 253.636 127.238,254.481 128.181,255.619 129.333 M157.061 130.857 C 157.064 131.905,157.138 132.288,157.226 131.709 C 157.313 131.130,157.311 130.273,157.221 129.804 C 157.130 129.336,157.058 129.810,157.061 130.857 M149.115 132.669 L 148.000 133.902 149.143 132.951 C 149.771 132.428,150.357 131.957,150.444 131.905 C 150.532 131.852,150.519 131.726,150.417 131.623 C 150.314 131.520,149.728 131.991,149.115 132.669 M260.556 134.571 C 261.490 135.567,262.304 136.381,262.365 136.381 C 262.651 136.381,262.349 136.039,260.667 134.460 L 258.857 132.762 260.556 134.571 M236.381 136.762 C 237.199 137.600,237.955 138.286,238.059 138.286 C 238.164 138.286,237.580 137.600,236.762 136.762 C 235.944 135.924,235.188 135.238,235.083 135.238 C 234.979 135.238,235.563 135.924,236.381 136.762 M166.313 138.250 L 165.198 139.619 166.484 138.393 C 167.192 137.719,167.694 137.103,167.600 137.024 C 167.505 136.945,166.927 137.497,166.313 138.250 M264.571 139.048 C 265.815 140.305,266.909 141.333,267.001 141.333 C 267.325 141.333,263.043 136.847,262.679 136.805 C 262.476 136.781,263.327 137.790,264.571 139.048 M269.524 144.381 C 270.556 145.429,271.486 146.286,271.590 146.286 C 271.695 146.286,270.937 145.429,269.905 144.381 C 268.873 143.333,267.943 142.476,267.838 142.476 C 267.733 142.476,268.492 143.333,269.524 144.381 M273.508 148.667 C 275.087 150.349,275.429 150.651,275.429 150.365 C 275.429 150.304,274.614 149.490,273.619 148.556 L 271.810 146.857 273.508 148.667 M227.400 154.145 C 226.519 155.101,226.516 155.124,227.326 154.630 C 227.793 154.345,228.259 153.894,228.362 153.627 C 228.634 152.916,228.431 153.026,227.400 154.145 M279.222 154.762 C 280.156 155.757,280.971 156.571,281.032 156.571 C 281.318 156.571,281.015 156.229,279.333 154.651 L 277.524 152.952 279.222 154.762 M283.963 159.893 C 284.946 160.980,286.097 161.309,285.492 160.329 C 285.363 160.120,285.158 160.048,285.038 160.169 C 284.917 160.289,284.377 160.001,283.838 159.529 C 283.019 158.811,283.040 158.871,283.963 159.893 M108.190 165.714 C 107.743 166.343,107.462 166.857,107.567 166.857 C 107.672 166.857,108.124 166.343,108.571 165.714 C 109.019 165.086,109.300 164.571,109.195 164.571 C 109.090 164.571,108.638 165.086,108.190 165.714 M307.048 183.357 C 307.048 183.423,307.605 183.980,308.286 184.595 L 309.524 185.714 308.405 184.476 C 307.362 183.322,307.048 183.063,307.048 183.357 M312.000 189.072 C 312.000 189.137,312.557 189.694,313.238 190.310 L 314.476 191.429 313.357 190.190 C 312.314 189.036,312.000 188.777,312.000 189.072 M86.643 192.476 L 85.524 193.714 86.762 192.595 C 87.443 191.980,88.000 191.423,88.000 191.357 C 88.000 191.063,87.686 191.322,86.643 192.476 M318.095 195.619 C 319.445 196.981,320.635 198.095,320.740 198.095 C 320.845 198.095,319.826 196.981,318.476 195.619 C 317.126 194.257,315.936 193.143,315.832 193.143 C 315.727 193.143,316.745 194.257,318.095 195.619 M81.511 198.000 L 79.429 200.190 81.619 198.108 C 82.824 196.963,83.810 195.977,83.810 195.918 C 83.810 195.635,83.445 195.965,81.511 198.000 M72.176 207.333 L 70.286 209.333 72.286 207.443 C 73.386 206.403,74.286 205.503,74.286 205.443 C 74.286 205.159,73.933 205.475,72.176 207.333 M330.667 208.190 C 331.377 208.924,332.045 209.524,332.149 209.524 C 332.254 209.524,331.758 208.924,331.048 208.190 C 330.337 207.457,329.670 206.857,329.565 206.857 C 329.460 206.857,329.956 207.457,330.667 208.190 M66.833 212.286 L 65.714 213.524 66.952 212.405 C 68.106 211.362,68.366 211.048,68.071 211.048 C 68.006 211.048,67.449 211.605,66.833 212.286 M335.131 212.199 C 335.805 212.906,336.421 213.408,336.500 213.314 C 336.579 213.220,336.027 212.641,335.274 212.028 L 333.905 210.912 335.131 212.199 M233.905 358.904 C 232.577 360.068,232.577 360.069,233.798 359.257 C 234.473 358.808,235.126 358.277,235.249 358.078 C 235.617 357.483,235.312 357.670,233.905 358.904 " stroke="none" fill="#9ecfe1" fill-rule="evenodd"></path><path id="path4" d="M152.000 89.143 C 151.572 89.981,151.372 90.667,151.554 90.667 C 151.736 90.667,152.154 89.981,152.483 89.143 C 152.812 88.305,153.013 87.619,152.929 87.619 C 152.846 87.619,152.428 88.305,152.000 89.143 M156.399 89.810 C 156.196 90.344,156.240 90.382,156.625 90.000 C 157.494 89.138,202.284 89.324,202.292 90.190 C 202.297 90.759,202.351 90.773,202.658 90.286 C 203.230 89.381,243.606 89.222,244.599 90.121 C 245.235 90.695,245.266 90.683,245.072 89.940 L 244.864 89.143 200.758 89.143 C 159.104 89.143,156.639 89.180,156.399 89.810 M154.540 93.778 C 153.771 95.488,153.198 96.944,153.266 97.012 C 153.406 97.152,155.107 93.853,155.061 93.531 C 155.045 93.418,155.305 92.797,155.639 92.151 C 155.973 91.505,156.177 90.907,156.092 90.823 C 156.008 90.738,155.309 92.068,154.540 93.778 M245.173 91.380 C 245.027 91.616,245.062 91.810,245.251 91.810 C 245.439 91.810,245.799 92.495,246.050 93.333 C 246.301 94.171,246.674 94.857,246.878 94.857 C 247.083 94.857,247.000 94.263,246.693 93.527 C 245.780 91.342,245.468 90.902,245.173 91.380 M149.455 94.884 C 149.004 95.707,148.760 96.381,148.913 96.381 C 149.211 96.381,150.589 93.700,150.392 93.503 C 150.328 93.439,149.906 94.060,149.455 94.884 M247.638 96.667 C 247.627 97.138,247.809 97.524,248.041 97.524 C 248.273 97.524,248.360 97.790,248.236 98.115 C 248.111 98.440,248.160 98.613,248.345 98.498 C 248.530 98.384,248.964 98.997,249.309 99.860 C 249.654 100.722,250.026 101.339,250.136 101.229 C 250.246 101.120,249.733 99.855,248.996 98.420 C 248.094 96.662,247.650 96.090,247.638 96.667 M152.501 98.190 C 152.370 98.557,152.178 99.012,152.073 99.202 C 151.968 99.391,152.080 99.424,152.322 99.274 C 152.564 99.125,152.762 98.770,152.762 98.485 C 152.762 98.201,152.976 97.882,153.238 97.776 C 153.611 97.626,153.608 97.577,153.226 97.554 C 152.958 97.537,152.631 97.824,152.501 98.190 M146.743 100.770 C 146.288 101.709,145.995 102.476,146.092 102.476 C 146.351 102.476,147.890 99.382,147.717 99.210 C 147.638 99.130,147.199 99.832,146.743 100.770 M149.033 105.348 C 148.154 107.121,147.517 108.571,147.618 108.571 C 147.871 108.571,150.938 102.430,150.769 102.261 C 150.693 102.185,149.912 103.575,149.033 105.348 M252.007 105.519 C 252.307 106.491,254.063 109.333,254.364 109.333 C 254.522 109.333,252.272 105.175,251.890 104.762 C 251.794 104.657,251.846 104.998,252.007 105.519 M144.062 106.112 C 143.424 107.512,143.545 107.811,144.236 106.538 C 144.558 105.943,144.750 105.385,144.663 105.298 C 144.576 105.211,144.305 105.577,144.062 106.112 M142.680 108.795 C 142.325 109.337,142.100 109.846,142.180 109.926 C 142.260 110.006,142.626 109.563,142.994 108.941 C 143.815 107.551,143.570 107.437,142.680 108.795 M254.476 111.261 C 254.476 111.482,254.639 111.563,254.839 111.440 C 255.038 111.317,255.408 111.907,255.661 112.751 C 255.914 113.595,256.275 114.286,256.464 114.286 C 256.652 114.286,256.685 114.484,256.535 114.726 C 256.367 114.997,256.430 115.062,256.699 114.896 C 257.006 114.706,256.853 114.069,256.180 112.742 C 255.301 111.006,254.476 110.289,254.476 111.261 M139.429 115.048 C 139.001 115.886,138.737 116.571,138.842 116.571 C 138.946 116.571,139.382 115.886,139.810 115.048 C 140.237 114.210,140.501 113.524,140.396 113.524 C 140.292 113.524,139.856 114.210,139.429 115.048 M257.333 116.190 C 257.204 116.400,257.290 116.571,257.524 116.571 C 257.758 116.571,257.827 116.769,257.678 117.011 C 257.516 117.273,257.573 117.348,257.818 117.196 C 258.213 116.953,258.912 118.318,258.733 118.981 C 258.686 119.153,258.822 119.187,259.035 119.055 C 259.280 118.904,259.139 118.260,258.656 117.313 C 257.838 115.709,257.702 115.594,257.333 116.190 M143.268 116.396 C 143.242 116.746,138.273 125.839,135.731 130.190 C 135.210 131.081,134.872 131.810,134.978 131.810 C 135.478 131.810,143.681 116.919,143.466 116.402 C 143.353 116.131,143.288 116.129,143.268 116.396 M137.671 118.190 C 137.322 118.871,136.868 119.537,136.662 119.670 C 136.456 119.803,136.368 120.146,136.466 120.432 C 136.566 120.726,137.086 120.083,137.661 118.952 C 138.221 117.852,138.595 116.952,138.492 116.952 C 138.389 116.952,138.020 117.510,137.671 118.190 M248.381 122.274 C 248.381 122.477,248.600 122.559,248.867 122.456 C 249.135 122.354,250.027 122.959,250.849 123.801 C 251.672 124.644,252.520 125.333,252.734 125.333 C 252.947 125.333,252.738 125.064,252.269 124.736 C 251.793 124.402,251.530 123.939,251.674 123.688 C 251.816 123.441,251.800 123.356,251.640 123.501 C 251.257 123.845,250.303 122.960,250.575 122.513 C 250.690 122.323,250.598 122.283,250.371 122.424 C 250.143 122.564,249.850 122.505,249.718 122.292 C 249.413 121.799,248.381 121.785,248.381 122.274 M260.781 122.254 C 260.641 122.481,260.679 122.667,260.867 122.667 C 261.054 122.667,261.707 123.624,262.318 124.793 C 262.929 125.963,263.673 127.120,263.972 127.365 C 264.452 127.758,263.775 126.446,261.678 122.921 C 261.294 122.275,260.934 122.007,260.781 122.254 M248.299 132.017 C 248.239 136.950,248.307 141.279,248.449 141.636 C 248.592 141.993,248.720 137.957,248.735 132.667 C 248.750 127.376,248.682 123.048,248.585 123.048 C 248.487 123.048,248.359 127.084,248.299 132.017 M134.569 123.905 C 134.029 124.579,132.412 127.890,132.848 127.429 C 133.342 126.906,135.309 123.429,135.110 123.429 C 135.022 123.429,134.779 123.643,134.569 123.905 M194.964 125.923 C 195.318 126.876,195.656 127.507,195.717 127.325 C 195.839 126.958,194.755 124.190,194.489 124.190 C 194.397 124.190,194.611 124.970,194.964 125.923 M206.476 124.721 C 206.476 125.082,206.341 125.295,206.176 125.193 C 206.011 125.091,205.841 125.425,205.799 125.935 C 205.757 126.445,205.474 127.457,205.170 128.185 C 204.866 128.912,204.748 129.588,204.907 129.686 C 205.257 129.902,207.015 124.603,206.699 124.286 C 206.576 124.164,206.476 124.359,206.476 124.721 M208.808 124.381 C 208.800 124.590,209.114 125.362,209.505 126.095 C 210.177 127.357,210.212 127.374,210.155 126.418 C 210.122 125.861,209.948 125.497,209.769 125.608 C 209.589 125.719,209.557 125.403,209.698 124.905 C 209.875 124.282,209.842 124.162,209.595 124.519 C 209.291 124.958,209.203 124.958,209.029 124.519 C 208.915 124.234,208.816 124.171,208.808 124.381 M156.861 126.297 C 156.960 126.815,157.177 127.238,157.342 127.238 C 157.695 127.238,157.371 125.783,156.961 125.529 C 156.807 125.434,156.762 125.780,156.861 126.297 M253.240 125.967 C 253.504 126.073,253.640 126.288,253.543 126.445 C 253.447 126.601,254.255 127.572,255.339 128.603 C 256.423 129.633,257.015 130.119,256.654 129.683 C 256.293 129.247,256.127 128.748,256.285 128.575 C 256.442 128.401,256.380 128.368,256.146 128.501 C 255.912 128.635,255.414 128.405,255.039 127.991 C 254.665 127.577,254.469 127.238,254.604 127.238 C 254.739 127.238,254.556 126.895,254.197 126.476 C 253.839 126.057,253.369 125.728,253.153 125.744 C 252.938 125.761,252.977 125.861,253.240 125.967 M153.003 128.830 L 150.286 131.565 153.143 128.940 C 154.714 127.496,156.071 126.266,156.159 126.205 C 156.246 126.145,156.183 126.095,156.018 126.095 C 155.854 126.095,154.497 127.326,153.003 128.830 M211.161 129.552 C 214.017 135.932,214.601 137.145,214.748 136.998 C 214.837 136.909,214.556 136.101,214.122 135.203 C 213.688 134.306,213.333 133.271,213.333 132.903 C 213.333 132.536,213.173 132.136,212.977 132.015 C 212.525 131.736,211.429 129.559,211.429 128.940 C 211.429 128.684,211.160 128.251,210.832 127.979 C 210.408 127.628,210.504 128.083,211.161 129.552 M196.003 128.762 C 196.454 130.300,196.999 131.026,196.718 129.714 C 196.583 129.086,196.304 128.400,196.098 128.190 C 195.852 127.940,195.820 128.136,196.003 128.762 M264.395 128.190 C 264.397 128.400,264.748 129.000,265.177 129.524 C 265.694 130.156,265.824 130.220,265.562 129.714 C 264.920 128.472,264.392 127.783,264.395 128.190 M172.725 130.190 C 171.922 131.186,171.172 132.086,171.061 132.190 C 170.837 132.399,167.179 136.766,165.954 138.286 C 164.193 140.471,168.057 136.288,170.881 132.952 C 173.943 129.336,174.668 128.381,174.354 128.381 C 174.262 128.381,173.529 129.195,172.725 130.190 M130.623 130.762 C 130.375 131.233,130.033 131.711,129.863 131.823 C 129.692 131.935,129.274 132.706,128.932 133.537 C 128.590 134.368,128.472 134.876,128.669 134.667 C 129.223 134.079,131.511 129.905,131.279 129.905 C 131.167 129.905,130.871 130.290,130.623 130.762 M191.238 133.143 C 190.992 134.328,190.867 135.375,190.960 135.468 C 191.053 135.561,191.325 134.662,191.565 133.469 C 191.804 132.277,191.929 131.231,191.843 131.144 C 191.756 131.058,191.484 131.957,191.238 133.143 M196.984 131.155 C 196.736 133.464,201.354 136.673,202.427 134.937 C 202.529 134.771,202.045 134.702,201.350 134.783 C 199.604 134.987,198.625 134.356,197.758 132.469 C 197.350 131.582,197.002 130.991,196.984 131.155 M204.063 131.683 C 203.924 131.822,203.807 132.294,203.804 132.730 C 203.799 133.397,203.732 133.433,203.387 132.952 C 203.036 132.464,203.006 132.475,203.181 133.024 C 203.312 133.432,203.151 133.714,202.741 133.797 C 202.143 133.918,202.142 133.946,202.730 134.178 C 203.199 134.363,203.530 134.079,204.001 133.088 C 204.599 131.827,204.631 131.116,204.063 131.683 M147.429 133.785 C 146.486 134.644,146.057 135.166,146.476 134.945 C 147.193 134.566,149.669 132.172,149.309 132.206 C 149.218 132.215,148.371 132.925,147.429 133.785 M233.320 132.987 C 234.882 134.903,237.510 137.524,237.868 137.524 C 238.073 137.524,237.908 137.280,237.501 136.983 C 237.095 136.686,236.762 136.257,236.762 136.031 C 236.762 135.804,236.622 135.628,236.451 135.639 C 236.279 135.650,235.622 135.008,234.990 134.211 C 234.358 133.414,233.555 132.606,233.206 132.416 C 232.702 132.141,232.725 132.258,233.320 132.987 M260.175 133.878 C 261.846 135.591,262.476 135.969,262.476 135.259 C 262.476 135.061,262.010 134.675,261.440 134.402 C 260.870 134.128,260.222 133.562,260.001 133.143 C 259.780 132.724,259.346 132.326,259.037 132.259 C 258.729 132.193,259.240 132.921,260.175 133.878 M157.476 136.952 C 157.477 139.257,157.539 140.151,157.615 138.938 C 157.691 137.726,157.690 135.840,157.614 134.748 C 157.537 133.656,157.475 134.648,157.476 136.952 M273.348 135.524 C 274.122 136.833,274.838 137.905,274.938 137.905 C 275.199 137.905,273.152 134.395,272.493 133.714 C 272.189 133.400,272.574 134.214,273.348 135.524 M231.089 134.526 C 230.671 136.554,230.597 137.524,230.858 137.524 C 231.010 137.524,231.244 136.724,231.378 135.747 C 231.632 133.892,231.412 132.960,231.089 134.526 M144.762 135.912 C 144.762 136.074,143.886 136.888,142.815 137.722 C 141.744 138.556,140.672 139.414,140.434 139.630 C 140.195 139.845,138.500 141.268,136.667 142.792 C 134.833 144.315,133.333 145.650,133.333 145.758 C 133.333 145.922,138.308 142.005,139.667 140.770 C 139.902 140.556,141.317 139.373,142.810 138.141 C 145.593 135.844,145.801 135.619,145.143 135.619 C 144.933 135.619,144.762 135.751,144.762 135.912 M131.606 137.238 L 131.002 138.476 131.778 137.524 C 132.526 136.607,132.770 136.000,132.391 136.000 C 132.291 136.000,131.938 136.557,131.606 137.238 M190.265 137.312 C 190.121 138.077,190.089 138.788,190.194 138.893 C 190.299 138.997,190.502 138.458,190.646 137.693 C 190.789 136.929,190.821 136.217,190.716 136.113 C 190.611 136.008,190.408 136.548,190.265 137.312 M126.548 137.508 C 125.613 138.772,125.408 139.667,126.326 138.476 C 127.026 137.567,127.699 136.381,127.514 136.381 C 127.441 136.381,127.006 136.888,126.548 137.508 M177.596 136.952 C 177.606 137.371,177.745 138.229,177.905 138.857 L 178.196 140.000 178.214 138.857 C 178.224 138.229,178.085 137.371,177.905 136.952 L 177.577 136.190 177.596 136.952 M264.172 138.227 C 265.194 139.307,266.110 140.190,266.207 140.190 C 266.478 140.190,263.128 136.592,262.694 136.417 C 262.484 136.332,263.149 137.147,264.172 138.227 M269.487 137.583 C 269.307 137.875,269.384 137.918,269.720 137.711 C 270.098 137.477,270.156 137.579,269.949 138.116 C 269.798 138.511,269.796 138.712,269.945 138.563 C 270.094 138.414,270.476 138.505,270.793 138.765 C 271.212 139.108,271.183 138.949,270.689 138.190 C 269.917 137.004,269.862 136.976,269.487 137.583 M230.288 138.283 C 230.159 138.491,230.229 138.962,230.444 139.330 C 230.779 139.905,230.836 139.851,230.846 138.952 C 230.858 137.857,230.681 137.645,230.288 138.283 M215.268 138.363 C 215.208 138.899,216.132 140.571,216.489 140.571 C 216.690 140.571,216.648 140.322,216.395 140.017 C 216.142 139.712,216.061 139.257,216.217 139.005 C 216.387 138.730,216.337 138.649,216.091 138.801 C 215.867 138.939,215.597 138.837,215.491 138.574 C 215.385 138.311,215.285 138.216,215.268 138.363 M239.629 140.005 C 240.622 141.118,241.448 141.754,241.609 141.529 C 241.761 141.317,241.630 141.087,241.319 141.019 C 241.007 140.951,240.868 140.693,241.009 140.447 C 241.150 140.201,241.120 140.132,240.943 140.292 C 240.766 140.453,240.015 140.025,239.273 139.340 C 238.246 138.392,238.331 138.550,239.629 140.005 M130.211 139.524 C 128.677 141.944,127.913 143.443,128.705 142.476 C 129.596 141.389,131.183 138.667,130.925 138.667 C 130.831 138.667,130.510 139.052,130.211 139.524 M163.678 141.039 C 162.202 142.815,160.068 143.254,158.583 142.087 C 158.190 141.777,158.271 141.910,158.764 142.381 C 159.644 143.221,160.883 143.460,162.046 143.014 C 162.610 142.797,165.574 139.429,165.200 139.429 C 165.099 139.429,164.414 140.153,163.678 141.039 M276.152 140.000 C 276.794 141.243,277.322 141.931,277.319 141.524 C 277.318 141.314,276.966 140.714,276.537 140.190 C 276.020 139.558,275.891 139.494,276.152 140.000 M271.238 140.635 C 271.238 140.879,271.350 140.968,271.486 140.831 C 271.623 140.695,271.975 140.881,272.269 141.244 C 272.749 141.837,272.761 141.817,272.389 141.048 C 271.949 140.141,271.238 139.886,271.238 140.635 M267.048 141.259 C 267.048 141.427,267.690 142.156,268.476 142.878 L 269.905 144.190 268.660 142.832 C 267.975 142.085,267.532 141.356,267.676 141.213 C 267.819 141.070,267.737 140.952,267.492 140.952 C 267.248 140.952,267.048 141.090,267.048 141.259 M123.955 141.810 C 122.643 144.034,122.558 144.224,123.226 143.429 C 124.000 142.507,124.667 141.333,124.417 141.333 C 124.317 141.333,124.109 141.548,123.955 141.810 M242.540 142.754 C 242.207 143.292,243.928 144.381,245.112 144.381 C 246.377 144.381,247.904 143.656,248.186 142.922 C 248.363 142.461,248.240 142.485,247.636 143.032 C 246.508 144.053,244.208 144.106,243.417 143.130 C 243.028 142.649,242.693 142.506,242.540 142.754 M278.029 143.097 C 278.872 144.632,279.721 145.467,279.069 144.119 C 278.746 143.452,278.292 142.788,278.060 142.645 C 277.758 142.458,277.749 142.587,278.029 143.097 M217.540 143.524 C 217.561 143.906,219.011 146.543,219.032 146.237 C 219.058 145.843,217.909 143.238,217.709 143.238 C 217.607 143.238,217.531 143.367,217.540 143.524 M273.295 143.714 C 273.144 143.976,273.155 144.069,273.320 143.921 C 273.484 143.773,273.950 144.030,274.356 144.492 L 275.093 145.333 274.455 144.286 C 273.728 143.091,273.670 143.063,273.295 143.714 M127.091 144.571 C 125.514 147.013,125.187 147.630,125.778 147.048 C 126.449 146.388,128.149 143.619,127.884 143.619 C 127.787 143.619,127.430 144.048,127.091 144.571 M228.952 148.190 C 228.689 149.883,228.552 151.346,228.647 151.441 C 228.743 151.537,229.034 150.227,229.293 148.531 C 229.553 146.835,229.690 145.373,229.598 145.281 C 229.506 145.189,229.216 146.498,228.952 148.190 M271.690 146.157 C 271.939 147.080,280.121 155.463,280.596 155.281 C 280.866 155.178,281.314 155.383,281.591 155.737 C 282.044 156.316,282.028 156.328,281.429 155.858 C 279.852 154.622,280.916 156.384,283.238 158.857 C 284.600 160.307,285.714 161.403,285.714 161.292 C 285.714 160.650,283.315 157.739,282.965 157.956 C 282.720 158.107,282.658 158.037,282.813 157.786 C 283.263 157.057,281.133 154.200,280.519 154.710 C 280.181 154.990,280.000 155.002,280.000 154.744 C 280.000 154.526,279.882 154.034,279.738 153.650 C 279.500 153.014,279.539 153.003,280.184 153.524 C 280.655 153.904,280.534 153.554,279.824 152.476 C 279.236 151.586,278.597 150.857,278.403 150.857 C 278.209 150.857,278.133 150.724,278.233 150.561 C 278.334 150.398,278.076 149.841,277.659 149.323 L 276.901 148.381 277.390 149.333 C 277.891 150.311,277.965 150.534,278.048 151.302 C 278.074 151.546,278.208 151.633,278.347 151.494 C 278.760 151.081,279.639 152.649,279.377 153.332 C 279.119 154.002,275.501 150.312,275.724 149.607 C 275.781 149.425,275.672 149.373,275.481 149.491 C 275.032 149.769,274.203 148.781,274.575 148.409 C 274.730 148.254,274.600 148.184,274.286 148.254 C 273.969 148.324,273.761 148.156,273.819 147.876 C 273.877 147.599,273.763 147.471,273.566 147.593 C 273.370 147.714,272.841 147.341,272.390 146.764 C 271.940 146.187,271.625 145.914,271.690 146.157 M275.592 147.029 C 275.592 147.439,275.668 147.697,275.761 147.604 C 275.854 147.511,276.190 147.648,276.508 147.908 C 276.926 148.250,276.897 148.092,276.404 147.333 C 275.591 146.085,275.592 146.085,275.592 147.029 M130.499 147.773 C 130.382 147.962,128.741 149.275,126.854 150.690 C 124.966 152.105,123.503 153.345,123.603 153.445 C 123.788 153.629,131.048 147.936,131.048 147.607 C 131.048 147.309,130.725 147.407,130.499 147.773 M282.081 149.238 C 282.668 150.129,283.221 150.857,283.310 150.857 C 283.585 150.857,282.126 148.539,281.554 148.066 C 281.257 147.820,281.494 148.348,282.081 149.238 M118.494 150.259 C 117.036 152.378,116.957 153.018,118.402 151.010 C 119.779 149.094,120.090 148.571,119.850 148.571 C 119.743 148.571,119.133 149.331,118.494 150.259 M220.791 150.476 C 221.944 152.856,222.329 153.391,221.888 152.000 C 221.723 151.476,221.559 150.705,221.524 150.286 C 221.489 149.867,221.354 149.610,221.223 149.714 C 221.092 149.819,220.713 149.562,220.381 149.143 C 220.049 148.724,220.234 149.324,220.791 150.476 M121.492 153.222 C 120.357 154.941,119.269 156.613,119.075 156.936 C 118.880 157.259,119.566 156.852,120.599 156.030 C 123.083 154.053,123.414 153.721,122.348 154.270 C 120.977 154.977,120.901 154.430,122.152 152.857 C 123.164 151.586,123.984 150.095,123.671 150.095 C 123.607 150.095,122.627 151.502,121.492 153.222 M180.596 151.930 C 180.519 153.508,183.575 155.635,184.526 154.666 C 184.761 154.427,184.781 154.280,184.571 154.339 C 183.422 154.664,181.838 153.879,181.249 152.692 C 180.903 151.997,180.609 151.654,180.596 151.930 M185.876 153.766 C 185.026 154.690,185.017 154.736,185.765 154.348 C 186.211 154.116,186.678 153.664,186.800 153.344 C 187.112 152.532,186.938 152.611,185.876 153.766 M222.863 153.983 C 222.857 154.657,224.775 155.248,226.125 154.988 C 226.905 154.837,226.966 154.179,226.219 153.981 C 225.880 153.891,225.901 153.984,226.286 154.267 C 226.724 154.589,226.465 154.647,225.182 154.513 C 224.260 154.417,223.363 154.112,223.187 153.836 C 222.944 153.453,222.867 153.487,222.863 153.983 M114.003 157.048 C 113.796 157.310,112.801 158.724,111.792 160.190 C 110.783 161.657,109.856 162.943,109.732 163.048 C 109.608 163.152,109.201 163.752,108.827 164.381 L 108.148 165.524 109.132 164.381 C 110.322 162.998,114.776 156.571,114.544 156.571 C 114.453 156.571,114.210 156.786,114.003 157.048 M291.258 162.571 C 292.020 163.671,292.719 164.571,292.811 164.571 C 293.122 164.571,292.252 163.248,291.058 161.905 C 289.975 160.687,289.992 160.744,291.258 162.571 M293.931 166.286 C 295.011 167.702,295.523 168.063,294.877 166.952 C 294.258 165.889,293.462 164.952,293.177 164.952 C 293.032 164.952,293.371 165.552,293.931 166.286 M106.613 167.524 C 105.405 168.982,104.970 169.659,105.411 169.395 C 105.898 169.103,107.590 166.857,107.323 166.857 C 107.237 166.857,106.917 167.157,106.613 167.524 M100.314 175.714 C 99.889 176.186,99.406 176.829,99.239 177.143 C 98.917 177.749,99.005 177.666,100.548 175.905 C 101.053 175.329,101.380 174.857,101.276 174.857 C 101.171 174.857,100.738 175.243,100.314 175.714 M301.714 176.381 C 302.378 177.219,303.007 177.905,303.112 177.905 C 303.216 177.905,302.759 177.219,302.095 176.381 C 301.431 175.543,300.803 174.857,300.698 174.857 C 300.593 174.857,301.051 175.543,301.714 176.381 M96.832 180.095 C 95.969 181.090,94.901 182.378,94.458 182.956 C 94.016 183.534,93.469 183.893,93.244 183.754 C 93.000 183.603,92.945 183.681,93.109 183.945 C 93.267 184.200,92.898 184.875,92.245 185.528 C 91.619 186.154,91.248 186.667,91.420 186.667 C 91.721 186.667,93.570 184.588,97.098 180.286 C 99.143 177.791,98.949 177.652,96.832 180.095 M310.894 187.429 C 311.777 188.476,312.579 189.333,312.675 189.333 C 312.971 189.333,311.687 187.531,310.657 186.501 C 309.050 184.894,309.177 185.392,310.894 187.429 M90.103 188.095 C 88.720 189.478,85.976 192.762,86.204 192.762 C 86.302 192.762,87.534 191.476,88.940 189.905 C 91.482 187.064,92.107 186.093,90.103 188.095 M316.762 193.905 C 317.794 194.952,318.724 195.810,318.829 195.810 C 318.933 195.810,318.175 194.952,317.143 193.905 C 316.111 192.857,315.181 192.000,315.076 192.000 C 314.971 192.000,315.730 192.857,316.762 193.905 M83.982 195.143 L 82.476 196.762 84.095 195.256 C 85.601 193.856,85.889 193.524,85.601 193.524 C 85.539 193.524,84.810 194.252,83.982 195.143 M80.741 198.381 L 79.429 199.810 80.857 198.497 C 82.187 197.275,82.461 196.952,82.170 196.952 C 82.106 196.952,81.463 197.595,80.741 198.381 M324.578 202.122 C 326.774 204.337,329.086 206.518,329.714 206.969 C 330.343 207.420,328.632 205.608,325.912 202.942 C 323.192 200.276,320.881 198.095,320.776 198.095 C 320.671 198.095,322.382 199.907,324.578 202.122 M75.601 203.905 L 74.095 205.524 75.714 204.018 C 77.220 202.617,77.508 202.286,77.220 202.286 C 77.158 202.286,76.429 203.014,75.601 203.905 M70.656 208.476 L 68.000 211.238 70.762 208.582 C 73.327 206.114,73.698 205.714,73.418 205.714 C 73.360 205.714,72.117 206.957,70.656 208.476 M331.048 208.119 C 331.048 208.185,331.605 208.742,332.286 209.357 L 333.524 210.476 332.405 209.238 C 331.362 208.084,331.048 207.825,331.048 208.119 M333.714 210.644 C 333.714 210.866,333.843 211.049,334.000 211.051 C 334.157 211.053,334.938 211.672,335.735 212.427 C 336.532 213.183,337.261 213.723,337.356 213.628 C 337.450 213.534,336.670 212.733,335.621 211.848 C 334.572 210.964,333.714 210.422,333.714 210.644 M67.105 211.524 C 66.843 211.786,66.442 212.000,66.215 212.000 C 65.988 212.000,65.643 212.429,65.450 212.952 C 65.128 213.824,65.213 213.794,66.454 212.592 C 67.199 211.870,67.810 211.227,67.810 211.163 C 67.810 210.935,67.573 211.056,67.105 211.524 M340.571 216.460 C 340.571 216.715,346.870 221.736,349.333 223.444 C 352.371 225.550,351.246 224.524,346.857 221.185 C 344.762 219.591,342.490 217.836,341.810 217.285 C 341.129 216.734,340.571 216.363,340.571 216.460 M58.704 218.727 C 57.426 219.807,56.381 220.761,56.381 220.847 C 56.381 221.052,60.943 217.466,61.189 217.068 C 61.605 216.396,60.921 216.852,58.704 218.727 M51.238 224.605 L 50.095 225.587 51.333 224.767 C 52.014 224.317,52.571 223.874,52.571 223.784 C 52.571 223.498,52.410 223.598,51.238 224.605 M48.169 226.824 C 45.596 228.933,45.240 229.327,46.879 228.251 C 48.430 227.234,49.888 225.905,49.453 225.905 C 49.363 225.905,48.785 226.318,48.169 226.824 M357.423 229.038 C 358.554 230.000,360.762 231.378,360.762 231.123 C 360.762 231.036,359.776 230.332,358.571 229.559 C 357.367 228.786,356.850 228.551,357.423 229.038 M43.619 230.308 C 42.909 230.911,42.776 231.134,43.269 230.898 C 43.978 230.559,45.262 229.330,44.904 229.335 C 44.826 229.336,44.248 229.774,43.619 230.308 M41.316 232.028 C 41.177 232.253,41.461 232.896,41.947 233.457 C 43.283 234.998,46.096 237.665,46.093 237.387 C 46.091 237.253,45.054 236.131,43.789 234.894 C 42.471 233.607,41.571 232.426,41.684 232.132 C 41.919 231.520,41.673 231.450,41.316 232.028 M299.238 294.429 C 264.876 328.905,236.888 357.034,237.042 356.937 C 237.769 356.482,361.905 232.204,361.905 231.931 C 361.905 231.759,361.862 231.647,361.810 231.682 C 361.757 231.716,333.600 259.952,299.238 294.429 M46.656 238.458 C 46.779 238.658,47.432 239.202,48.107 239.666 L 49.333 240.511 48.214 239.303 C 47.180 238.186,46.139 237.622,46.656 238.458 M50.476 242.286 C 51.078 242.914,51.743 243.429,51.952 243.429 C 52.162 243.429,51.840 242.914,51.238 242.286 C 50.636 241.657,49.972 241.143,49.762 241.143 C 49.553 241.143,49.874 241.657,50.476 242.286 M52.952 244.347 C 52.952 244.512,53.467 245.127,54.095 245.714 C 54.724 246.301,55.238 246.659,55.238 246.510 C 55.238 246.360,54.724 245.745,54.095 245.143 C 53.467 244.541,52.952 244.183,52.952 244.347 M56.571 248.381 C 57.174 249.010,57.838 249.524,58.047 249.524 C 58.257 249.524,57.936 249.010,57.333 248.381 C 56.731 247.752,56.067 247.238,55.857 247.238 C 55.648 247.238,55.969 247.752,56.571 248.381 M59.048 250.443 C 59.048 250.607,59.562 251.222,60.190 251.810 C 60.819 252.397,61.333 252.755,61.333 252.605 C 61.333 252.455,60.819 251.840,60.190 251.238 C 59.562 250.636,59.048 250.278,59.048 250.443 M62.667 254.476 C 63.269 255.105,63.933 255.619,64.143 255.619 C 64.352 255.619,64.031 255.105,63.429 254.476 C 62.826 253.848,62.162 253.333,61.953 253.333 C 61.743 253.333,62.064 253.848,62.667 254.476 M65.143 256.538 C 65.143 256.702,65.657 257.318,66.286 257.905 C 66.914 258.492,67.429 258.850,67.429 258.700 C 67.429 258.551,66.914 257.936,66.286 257.333 C 65.657 256.731,65.143 256.373,65.143 256.538 M68.762 260.571 C 69.364 261.200,70.028 261.714,70.238 261.714 C 70.447 261.714,70.126 261.200,69.524 260.571 C 68.922 259.943,68.257 259.429,68.048 259.429 C 67.838 259.429,68.160 259.943,68.762 260.571 M71.238 262.633 C 71.238 262.798,71.752 263.413,72.381 264.000 C 73.010 264.587,73.524 264.945,73.524 264.796 C 73.524 264.646,73.010 264.031,72.381 263.429 C 71.752 262.826,71.238 262.468,71.238 262.633 M74.857 266.667 C 75.459 267.295,76.123 267.810,76.333 267.810 C 76.543 267.810,76.221 267.295,75.619 266.667 C 75.017 266.038,74.353 265.524,74.143 265.524 C 73.934 265.524,74.255 266.038,74.857 266.667 M77.333 268.728 C 77.333 268.893,77.848 269.508,78.476 270.095 C 79.105 270.682,79.619 271.040,79.619 270.891 C 79.619 270.741,79.105 270.126,78.476 269.524 C 77.848 268.922,77.333 268.564,77.333 268.728 M80.952 272.762 C 81.555 273.390,82.219 273.905,82.428 273.905 C 82.638 273.905,82.316 273.390,81.714 272.762 C 81.112 272.133,80.448 271.619,80.238 271.619 C 80.029 271.619,80.350 272.133,80.952 272.762 M83.429 274.824 C 83.429 274.988,83.943 275.603,84.571 276.190 C 85.200 276.778,85.714 277.136,85.714 276.986 C 85.714 276.836,85.200 276.221,84.571 275.619 C 83.943 275.017,83.429 274.659,83.429 274.824 M87.048 278.857 C 87.650 279.486,88.314 280.000,88.523 280.000 C 88.733 280.000,88.412 279.486,87.810 278.857 C 87.207 278.229,86.543 277.714,86.334 277.714 C 86.124 277.714,86.445 278.229,87.048 278.857 M89.524 280.919 C 89.524 281.083,90.038 281.699,90.667 282.286 C 91.295 282.873,91.810 283.231,91.810 283.081 C 91.810 282.932,91.295 282.316,90.667 281.714 C 90.038 281.112,89.524 280.754,89.524 280.919 M93.143 284.952 C 93.745 285.581,94.409 286.095,94.619 286.095 C 94.828 286.095,94.507 285.581,93.905 284.952 C 93.303 284.324,92.638 283.810,92.429 283.810 C 92.219 283.810,92.541 284.324,93.143 284.952 M95.619 287.014 C 95.619 287.179,96.133 287.794,96.762 288.381 C 97.390 288.968,97.905 289.326,97.905 289.176 C 97.905 289.027,97.390 288.412,96.762 287.810 C 96.133 287.207,95.619 286.849,95.619 287.014 M99.238 291.048 C 99.840 291.676,100.504 292.190,100.714 292.190 C 100.923 292.190,100.602 291.676,100.000 291.048 C 99.398 290.419,98.734 289.905,98.524 289.905 C 98.315 289.905,98.636 290.419,99.238 291.048 M101.714 293.109 C 101.714 293.274,102.229 293.889,102.857 294.476 C 103.486 295.063,104.000 295.421,104.000 295.272 C 104.000 295.122,103.486 294.507,102.857 293.905 C 102.229 293.303,101.714 292.945,101.714 293.109 M105.333 297.143 C 105.936 297.771,106.600 298.286,106.809 298.286 C 107.019 298.286,106.697 297.771,106.095 297.143 C 105.493 296.514,104.829 296.000,104.619 296.000 C 104.410 296.000,104.731 296.514,105.333 297.143 M107.810 299.204 C 107.810 299.369,108.324 299.984,108.952 300.571 C 109.581 301.159,110.095 301.517,110.095 301.367 C 110.095 301.217,109.581 300.602,108.952 300.000 C 108.324 299.398,107.810 299.040,107.810 299.204 M111.429 303.238 C 112.031 303.867,112.695 304.381,112.904 304.381 C 113.114 304.381,112.793 303.867,112.190 303.238 C 111.588 302.610,110.924 302.095,110.715 302.095 C 110.505 302.095,110.826 302.610,111.429 303.238 M113.905 305.300 C 113.905 305.464,114.419 306.079,115.048 306.667 C 115.676 307.254,116.190 307.612,116.190 307.462 C 116.190 307.313,115.676 306.697,115.048 306.095 C 114.419 305.493,113.905 305.135,113.905 305.300 M117.524 309.333 C 118.126 309.962,118.790 310.476,119.000 310.476 C 119.209 310.476,118.888 309.962,118.286 309.333 C 117.684 308.705,117.019 308.190,116.810 308.190 C 116.600 308.190,116.922 308.705,117.524 309.333 M120.000 311.395 C 120.000 311.560,120.514 312.175,121.143 312.762 C 121.771 313.349,122.286 313.707,122.286 313.557 C 122.286 313.408,121.771 312.793,121.143 312.190 C 120.514 311.588,120.000 311.230,120.000 311.395 M123.619 315.429 C 124.221 316.057,124.885 316.571,125.095 316.571 C 125.304 316.571,124.983 316.057,124.381 315.429 C 123.779 314.800,123.115 314.286,122.905 314.286 C 122.696 314.286,123.017 314.800,123.619 315.429 M126.095 317.490 C 126.095 317.655,126.610 318.270,127.238 318.857 C 127.867 319.444,128.381 319.802,128.381 319.653 C 128.381 319.503,127.867 318.888,127.238 318.286 C 126.610 317.684,126.095 317.326,126.095 317.490 M129.714 321.524 C 130.316 322.152,130.981 322.667,131.190 322.667 C 131.400 322.667,131.078 322.152,130.476 321.524 C 129.874 320.895,129.210 320.381,129.000 320.381 C 128.791 320.381,129.112 320.895,129.714 321.524 M132.190 323.585 C 132.190 323.750,132.705 324.365,133.333 324.952 C 133.962 325.540,134.476 325.898,134.476 325.748 C 134.476 325.598,133.962 324.983,133.333 324.381 C 132.705 323.779,132.190 323.421,132.190 323.585 M135.810 327.619 C 136.412 328.248,137.076 328.762,137.285 328.762 C 137.495 328.762,137.174 328.248,136.571 327.619 C 135.969 326.990,135.305 326.476,135.096 326.476 C 134.886 326.476,135.207 326.990,135.810 327.619 M138.286 329.681 C 138.286 329.845,138.800 330.460,139.429 331.048 C 140.057 331.635,140.571 331.993,140.571 331.843 C 140.571 331.694,140.057 331.078,139.429 330.476 C 138.800 329.874,138.286 329.516,138.286 329.681 M141.905 333.714 C 142.507 334.343,143.171 334.857,143.381 334.857 C 143.590 334.857,143.269 334.343,142.667 333.714 C 142.064 333.086,141.400 332.571,141.191 332.571 C 140.981 332.571,141.303 333.086,141.905 333.714 M144.381 335.776 C 144.381 335.941,144.895 336.556,145.524 337.143 C 146.152 337.730,146.667 338.088,146.667 337.938 C 146.667 337.789,146.152 337.174,145.524 336.571 C 144.895 335.969,144.381 335.611,144.381 335.776 M148.000 339.810 C 148.602 340.438,149.266 340.952,149.476 340.952 C 149.685 340.952,149.364 340.438,148.762 339.810 C 148.160 339.181,147.496 338.667,147.286 338.667 C 147.077 338.667,147.398 339.181,148.000 339.810 M150.476 341.871 C 150.476 342.036,150.990 342.651,151.619 343.238 C 152.248 343.825,152.762 344.183,152.762 344.034 C 152.762 343.884,152.248 343.269,151.619 342.667 C 150.990 342.064,150.476 341.706,150.476 341.871 M154.095 345.905 C 154.697 346.533,155.362 347.048,155.571 347.048 C 155.781 347.048,155.459 346.533,154.857 345.905 C 154.255 345.276,153.591 344.762,153.381 344.762 C 153.172 344.762,153.493 345.276,154.095 345.905 M156.571 348.119 C 156.571 348.289,157.129 348.829,157.810 349.319 L 159.048 350.211 157.929 349.010 C 156.743 347.738,156.571 347.625,156.571 348.119 M160.190 351.923 C 161.029 352.765,161.786 353.384,161.875 353.297 C 162.106 353.070,160.326 351.237,159.429 350.779 C 159.010 350.565,159.352 351.080,160.190 351.923 M162.286 354.036 C 162.286 354.108,163.186 354.908,164.286 355.813 L 166.286 357.460 164.587 355.682 C 163.124 354.151,162.286 353.551,162.286 354.036 M235.400 357.960 L 234.476 358.967 235.524 358.297 C 236.100 357.928,236.571 357.475,236.571 357.290 C 236.571 356.772,236.398 356.871,235.400 357.960 M168.381 359.394 C 168.381 359.534,172.272 362.052,173.714 362.845 C 174.881 363.487,173.488 362.392,171.147 360.827 C 168.868 359.303,168.381 359.051,168.381 359.394 M229.905 361.905 C 229.276 362.321,228.933 362.659,229.143 362.656 C 229.525 362.650,231.596 361.165,231.238 361.154 C 231.133 361.151,230.533 361.488,229.905 361.905 M184.762 367.810 C 185.495 368.092,186.352 368.323,186.667 368.323 C 186.981 368.323,186.638 368.092,185.905 367.810 C 185.171 367.527,184.314 367.296,184.000 367.296 C 183.686 367.296,184.029 367.527,184.762 367.810 M191.619 369.561 C 192.200 369.829,195.319 370.038,199.619 370.099 L 206.667 370.197 200.000 369.909 C 196.333 369.751,192.733 369.509,192.000 369.372 C 190.778 369.143,190.746 369.159,191.619 369.561 " stroke="none" fill="#c8f2fa" fill-rule="evenodd"></path></g></svg>